# Blender v2.79 (sub 0) OBJ File: 'Blend.blend'
# www.blender.org
o Mug_Circle.001
v 0.785218 0.794842 -0.216119
v 0.738576 0.794842 -0.200965
v 0.709750 0.794842 -0.161289
v 0.709750 0.794842 -0.112246
v 0.738576 0.794842 -0.072570
v 0.785218 0.794842 -0.057416
v 0.831860 0.794842 -0.072570
v 0.860686 0.794842 -0.112246
v 0.860686 0.794842 -0.161289
v 0.831860 0.794842 -0.200965
v 0.785218 0.968221 -0.216119
v 0.738576 0.968221 -0.200965
v 0.709750 0.968221 -0.161289
v 0.709750 0.968221 -0.112246
v 0.738576 0.968221 -0.072570
v 0.785218 0.968221 -0.057416
v 0.831860 0.968221 -0.072570
v 0.860686 0.968221 -0.112246
v 0.860686 0.968221 -0.161289
v 0.831860 0.968221 -0.200965
v 0.785218 0.794842 -0.136767
v 0.840204 0.812730 -0.154634
v 0.840204 0.812730 -0.118901
v 0.819201 0.812730 -0.089994
v 0.785218 0.812730 -0.078952
v 0.751235 0.812730 -0.089994
v 0.730232 0.812730 -0.118901
v 0.730232 0.812730 -0.154634
v 0.751235 0.812730 -0.183541
v 0.785218 0.812730 -0.194583
v 0.785218 0.968221 -0.194583
v 0.751235 0.968221 -0.183541
v 0.730232 0.968221 -0.154634
v 0.730232 0.968221 -0.118901
v 0.751235 0.968221 -0.089994
v 0.785218 0.968221 -0.078952
v 0.819201 0.968221 -0.089994
v 0.840204 0.968221 -0.118901
v 0.840204 0.968221 -0.154634
v 0.819201 0.968221 -0.183541
v 0.819201 0.812730 -0.183541
v 0.785218 0.812730 -0.136767
v 0.831860 0.799561 -0.200965
v 0.831860 0.963502 -0.200965
v 0.785218 0.963502 -0.216119
v 0.785218 0.799561 -0.216119
v 0.831860 0.799561 -0.072570
v 0.831860 0.963502 -0.072570
v 0.860686 0.963502 -0.112246
v 0.860686 0.799561 -0.112246
v 0.709750 0.799561 -0.112246
v 0.709750 0.963502 -0.112246
v 0.738576 0.963502 -0.072570
v 0.738576 0.799561 -0.072570
v 0.738576 0.963502 -0.200965
v 0.738576 0.799561 -0.200965
v 0.860686 0.963502 -0.161289
v 0.860686 0.799561 -0.161289
v 0.785218 0.963502 -0.057416
v 0.785218 0.799561 -0.057416
v 0.709750 0.963502 -0.161289
v 0.709750 0.799561 -0.161289
v 0.879902 0.942360 -0.182562
v 0.876680 0.960216 -0.182978
v 0.869780 0.942645 -0.173740
v 0.846719 0.942645 -0.205481
v 0.846719 0.820418 -0.205481
v 0.869780 0.820418 -0.173740
v 0.846206 0.802025 -0.203789
v 0.867826 0.802025 -0.174032
v 0.867826 0.961038 -0.174032
v 0.846206 0.961038 -0.203789
v 0.709750 0.943786 -0.112246
v 0.709750 0.819277 -0.112246
v 0.709750 0.819277 -0.161289
v 0.709750 0.943786 -0.161289
v 0.831860 0.943786 -0.072570
v 0.831860 0.819277 -0.072570
v 0.785218 0.819277 -0.057416
v 0.785218 0.943786 -0.057416
v 0.832524 0.943786 -0.201345
v 0.832524 0.819277 -0.201345
v 0.861351 0.819277 -0.161669
v 0.861351 0.943786 -0.161669
v 0.738576 0.819277 -0.200965
v 0.738576 0.943786 -0.200965
v 0.738576 0.819277 -0.072570
v 0.738576 0.943786 -0.072570
v 0.860686 0.819277 -0.112246
v 0.860686 0.943786 -0.112246
v 0.785218 0.819277 -0.216119
v 0.785218 0.943786 -0.216119
v 0.858283 0.942360 -0.212319
v 0.876680 0.802847 -0.182978
v 0.857462 0.802847 -0.209429
v 0.879902 0.820703 -0.182562
v 0.857462 0.960216 -0.209429
v 0.858283 0.820703 -0.212319
v 0.862429 0.850404 -0.214696
v 0.864865 0.881532 -0.216092
v 0.862429 0.912659 -0.214696
v 0.884049 0.912659 -0.184939
v 0.886484 0.881532 -0.186335
v 0.884049 0.850404 -0.184939
v 0.874449 0.912659 -0.178028
v 0.876742 0.881532 -0.179342
v 0.874449 0.850404 -0.178028
v 0.852830 0.912659 -0.207785
v 0.855123 0.881532 -0.209099
v 0.852830 0.850404 -0.207785
v 0.850445 0.974720 -0.115574
v 0.825530 0.974720 -0.081282
v 0.850445 0.974720 -0.157961
v 0.744905 0.974720 -0.192253
v 0.785218 0.974720 -0.205351
v 0.825530 0.974720 -0.192253
v 0.719991 0.974720 -0.157961
v 0.719991 0.974720 -0.115574
v 0.744905 0.974720 -0.081282
v 0.785218 0.974720 -0.068184
vn -0.3090 0.0000 -0.9511
vn 1.0000 0.0000 0.0000
vn -0.3090 0.0000 0.9511
vn 0.3090 0.0000 0.9511
vn -1.0000 0.0000 0.0000
vn -0.8090 0.0000 -0.5878
vn 0.3090 0.0000 -0.9511
vn 0.8090 0.0000 0.5878
vn -0.8090 0.0000 0.5878
vn -0.4335 0.8443 -0.3149
vn 0.0000 -1.0000 0.0000
vn -0.5358 0.8443 0.0000
vn 0.1656 0.8444 0.5096
vn -0.4335 0.8443 0.3149
vn 0.4335 0.8443 0.3149
vn -0.1656 0.8443 0.5096
vn 0.5358 0.8443 0.0000
vn 0.4335 0.8443 -0.3149
vn 0.1656 0.8443 -0.5096
vn -0.1656 0.8444 -0.5096
vn 0.8090 0.0000 -0.5878
vn 0.0000 1.0000 0.0000
vn 0.9994 -0.0334 0.0134
vn 0.9994 0.0334 0.0134
vn 0.8203 -0.0961 0.5638
vn 0.7120 0.0867 0.6968
vn 0.1478 -0.9832 -0.1073
vn 0.2981 0.0000 -0.9545
vn 0.9999 0.0000 0.0134
vn 0.0534 -0.9978 -0.0388
vn 0.1478 0.9832 -0.1073
vn -0.1911 -0.0125 -0.9815
vn -0.0661 -0.9967 0.0480
vn 0.8739 0.0201 0.4857
vn -0.0661 0.9967 0.0480
vn -0.2728 0.0806 -0.9587
vn 0.8020 -0.1311 -0.5827
vn 0.8020 0.1311 -0.5827
vn 0.5842 0.0166 0.8114
vn 0.6532 -0.1352 0.7451
vn -0.4428 -0.0699 -0.8939
vn 0.7989 0.1580 -0.5804
vn 0.0534 0.9978 -0.0388
vn -0.5035 0.1155 -0.8563
vn -0.7917 -0.2055 0.5752
vn -0.5842 -0.0166 -0.8114
vn -0.5093 0.0378 -0.8597
vn -0.5843 0.0088 -0.8115
vn -0.5831 -0.0092 -0.8123
vn -0.7917 0.2055 0.5752
vn -0.8061 0.0841 0.5857
vn -0.8062 -0.0841 0.5857
vn 0.7989 -0.1580 -0.5804
vn 0.8058 -0.0893 -0.5854
vn 0.8058 0.0893 -0.5854
vn 0.6569 0.0055 0.7539
vn 0.5843 -0.0088 0.8115
vn 0.5831 0.0092 0.8123
vn 0.1656 0.8443 0.5096
vn 0.4335 0.8444 -0.3149
vn 0.1656 0.8444 -0.5096
vn -0.1656 0.8443 -0.5096
vn 0.2980 0.0285 -0.9541
vn 0.8739 -0.0201 0.4857
vn 0.6531 0.1352 0.7451
vn 0.1478 -0.9832 -0.1074
vn 0.2980 -0.0285 -0.9541
vn 0.1478 0.9832 -0.1074
vn -0.2728 -0.0806 -0.9587
vn 0.8203 0.0961 0.5638
vn -0.1911 0.0125 -0.9815
vn 0.8020 -0.1312 -0.5827
vn 0.8020 0.1312 -0.5827
vn 0.6569 -0.0055 0.7539
vn 0.7120 -0.0867 0.6968
vn -0.5035 -0.1155 -0.8562
vn -0.4428 0.0699 -0.8939
vn -0.5093 -0.0378 -0.8597
vn -0.5842 0.0166 -0.8114
vn -0.5831 0.0092 -0.8123
vn -0.5843 -0.0088 -0.8115
vn -0.8062 0.0841 0.5857
vn -0.8061 -0.0841 0.5857
vn 0.5842 -0.0166 0.8114
vn 0.5831 -0.0092 0.8123
vn 0.5843 0.0088 0.8115
vn -0.1656 0.8444 0.5096
s off
f 56//1 1//1 2//1
f 58//2 8//2 9//2
f 60//3 5//3 6//3
f 17//4 59//4 48//4
f 14//5 61//5 52//5
f 62//6 2//6 3//6
f 46//7 10//7 1//7
f 50//8 7//8 8//8
f 54//9 4//9 5//9
f 38//10 112//10 111//10
f 10//11 21//11 1//11
f 3//11 21//11 4//11
f 39//12 111//12 113//12
f 32//13 115//13 114//13
f 4//11 21//11 5//11
f 40//14 113//14 116//14
f 117//15 32//15 114//15
f 5//11 21//11 6//11
f 31//16 116//16 115//16
f 34//17 117//17 118//17
f 6//11 21//11 7//11
f 35//18 118//18 119//18
f 7//11 21//11 8//11
f 36//19 119//19 120//19
f 8//11 21//11 9//11
f 1//11 21//11 2//11
f 37//20 120//20 112//20
f 9//11 21//11 10//11
f 2//11 21//11 3//11
f 26//21 34//21 35//21
f 29//4 31//4 32//4
f 22//5 38//5 39//5
f 25//7 35//7 36//7
f 28//8 32//8 33//8
f 41//9 39//9 40//9
f 24//1 36//1 37//1
f 27//2 33//2 34//2
f 30//3 40//3 31//3
f 23//6 37//6 38//6
f 26//22 42//22 27//22
f 22//22 42//22 23//22
f 28//22 42//22 29//22
f 23//22 42//22 24//22
f 25//22 42//22 26//22
f 29//22 42//22 30//22
f 41//22 42//22 22//22
f 24//22 42//22 25//22
f 27//22 42//22 28//22
f 30//22 42//22 41//22
f 15//9 52//9 53//9
f 18//8 48//8 49//8
f 11//7 44//7 45//7
f 13//6 55//6 61//6
f 16//3 53//3 59//3
f 19//2 49//2 57//2
f 12//1 45//1 55//1
f 51//5 3//5 4//5
f 47//4 6//4 7//4
f 43//21 9//21 10//21
f 85//6 62//6 75//6
f 87//3 60//3 79//3
f 89//23 58//23 83//23
f 55//6 76//6 61//6
f 53//3 80//3 59//3
f 57//24 90//24 84//24
f 45//1 86//1 55//1
f 52//9 88//9 53//9
f 48//8 90//8 49//8
f 44//7 92//7 45//7
f 20//21 57//21 44//21
f 83//25 70//25 68//25
f 79//4 47//4 78//4
f 75//5 51//5 74//5
f 65//26 64//26 71//26
f 91//1 56//1 85//1
f 58//27 69//27 70//27
f 59//4 77//4 48//4
f 91//7 43//7 46//7
f 78//8 50//8 89//8
f 74//9 54//9 87//9
f 91//28 81//28 82//28
f 89//8 77//8 78//8
f 87//9 73//9 74//9
f 85//1 92//1 91//1
f 83//29 90//29 89//29
f 79//3 88//3 87//3
f 75//6 86//6 85//6
f 82//21 84//21 83//21
f 78//4 80//4 79//4
f 74//5 76//5 75//5
f 61//5 73//5 52//5
f 70//30 95//30 94//30
f 57//31 72//31 44//31
f 82//32 69//32 43//32
f 84//33 66//33 65//33
f 84//34 71//34 57//34
f 83//35 67//35 82//35
f 81//36 72//36 66//36
f 98//37 94//37 95//37
f 64//38 93//38 97//38
f 63//39 105//39 102//39
f 68//40 94//40 96//40
f 67//41 95//41 69//41
f 101//42 63//42 102//42
f 71//43 97//43 72//43
f 66//44 97//44 93//44
f 65//45 108//45 105//45
f 108//46 93//46 101//46
f 110//47 98//47 67//47
f 109//48 99//48 110//48
f 109//49 101//49 100//49
f 68//50 110//50 67//50
f 107//51 109//51 110//51
f 105//52 109//52 106//52
f 99//53 96//53 98//53
f 100//54 104//54 99//54
f 100//55 102//55 103//55
f 96//56 107//56 68//56
f 104//57 106//57 107//57
f 102//58 106//58 103//58
f 112//59 16//59 17//59
f 120//16 15//16 16//16
f 119//14 14//14 15//14
f 118//12 13//12 14//12
f 115//19 20//19 11//19
f 117//10 12//10 13//10
f 20//60 113//60 19//60
f 114//20 11//20 12//20
f 113//17 18//17 19//17
f 111//15 17//15 18//15
f 56//1 46//1 1//1
f 58//2 50//2 8//2
f 60//3 54//3 5//3
f 17//4 16//4 59//4
f 14//5 13//5 61//5
f 62//6 56//6 2//6
f 46//7 43//7 10//7
f 50//8 47//8 7//8
f 54//9 51//9 4//9
f 38//10 37//10 112//10
f 39//12 38//12 111//12
f 32//59 31//59 115//59
f 40//14 39//14 113//14
f 117//15 33//15 32//15
f 31//16 40//16 116//16
f 34//17 33//17 117//17
f 35//18 34//18 118//18
f 36//61 35//61 119//61
f 37//62 36//62 120//62
f 26//21 27//21 34//21
f 29//4 30//4 31//4
f 22//5 23//5 38//5
f 25//7 26//7 35//7
f 28//8 29//8 32//8
f 41//9 22//9 39//9
f 24//1 25//1 36//1
f 27//2 28//2 33//2
f 30//3 41//3 40//3
f 23//6 24//6 37//6
f 15//9 14//9 52//9
f 18//8 17//8 48//8
f 11//7 20//7 44//7
f 13//6 12//6 55//6
f 16//3 15//3 53//3
f 19//2 18//2 49//2
f 12//1 11//1 45//1
f 51//5 62//5 3//5
f 47//4 60//4 6//4
f 43//21 58//21 9//21
f 85//6 56//6 62//6
f 87//3 54//3 60//3
f 89//2 50//2 58//2
f 55//6 86//6 76//6
f 53//3 88//3 80//3
f 57//2 49//2 90//2
f 45//1 92//1 86//1
f 52//9 73//9 88//9
f 48//8 77//8 90//8
f 44//63 81//63 92//63
f 20//21 19//21 57//21
f 83//64 58//64 70//64
f 79//4 60//4 47//4
f 75//5 62//5 51//5
f 65//65 63//65 64//65
f 91//1 46//1 56//1
f 58//66 43//66 69//66
f 59//4 80//4 77//4
f 91//67 82//67 43//67
f 78//8 47//8 50//8
f 74//9 51//9 54//9
f 91//28 92//28 81//28
f 89//8 90//8 77//8
f 87//9 88//9 73//9
f 85//1 86//1 92//1
f 83//29 84//29 90//29
f 79//3 80//3 88//3
f 75//6 76//6 86//6
f 82//21 81//21 84//21
f 78//4 77//4 80//4
f 74//5 73//5 76//5
f 61//5 76//5 73//5
f 70//30 69//30 95//30
f 57//68 71//68 72//68
f 82//69 67//69 69//69
f 84//33 81//33 66//33
f 84//70 65//70 71//70
f 83//35 68//35 67//35
f 81//71 44//71 72//71
f 98//72 96//72 94//72
f 64//73 63//73 93//73
f 63//74 65//74 105//74
f 68//75 70//75 94//75
f 67//76 98//76 95//76
f 101//42 93//42 63//42
f 71//43 64//43 97//43
f 66//77 72//77 97//77
f 65//45 66//45 108//45
f 108//78 66//78 93//78
f 110//79 99//79 98//79
f 109//80 100//80 99//80
f 109//81 108//81 101//81
f 68//50 107//50 110//50
f 107//82 106//82 109//82
f 105//83 108//83 109//83
f 99//53 104//53 96//53
f 100//54 103//54 104//54
f 100//55 101//55 102//55
f 96//84 104//84 107//84
f 104//85 103//85 106//85
f 102//86 105//86 106//86
f 112//59 120//59 16//59
f 120//87 119//87 15//87
f 119//14 118//14 14//14
f 118//12 117//12 13//12
f 115//19 116//19 20//19
f 117//10 114//10 12//10
f 20//18 116//18 113//18
f 114//62 115//62 11//62
f 113//17 111//17 18//17
f 111//15 112//15 17//15
