# Blender v2.79 (sub 0) OBJ File: 'Blend.blend'
# www.blender.org
o Plate_Circle
v 1.215707 0.802362 -0.276369
v 1.129854 0.802362 -0.259292
v 1.057072 0.802362 -0.210660
v 1.008441 0.802362 -0.137878
v 0.991364 0.802362 -0.052026
v 1.008441 0.802362 0.033827
v 1.057072 0.802362 0.106609
v 1.129854 0.802362 0.155240
v 1.215707 0.802362 0.172317
v 1.301559 0.802362 0.155240
v 1.374341 0.802362 0.106609
v 1.422973 0.802362 0.033827
v 1.440050 0.802362 -0.052026
v 1.422973 0.802362 -0.137878
v 1.374341 0.802362 -0.210661
v 1.301559 0.802362 -0.259292
v 1.215707 0.796319 -0.229508
v 1.147787 0.796319 -0.215998
v 1.090208 0.796319 -0.177525
v 1.051735 0.796319 -0.119945
v 1.038225 0.796319 -0.052026
v 1.051735 0.796319 0.015894
v 1.090208 0.796319 0.073473
v 1.147787 0.796319 0.111946
v 1.215707 0.796319 0.125456
v 1.283626 0.796319 0.111946
v 1.341206 0.796319 0.073473
v 1.379679 0.796319 0.015894
v 1.393189 0.796319 -0.052026
v 1.379679 0.796319 -0.119945
v 1.341206 0.796319 -0.177525
v 1.283626 0.796319 -0.215998
v 1.215707 0.796319 -0.052026
v 1.374341 0.798032 -0.210661
v 1.422973 0.798032 -0.137878
v 1.440050 0.798032 -0.052026
v 1.422973 0.798032 0.033827
v 1.374341 0.798032 0.106609
v 1.301559 0.798032 0.155240
v 1.215707 0.798032 0.172317
v 1.129854 0.798032 0.155240
v 1.057072 0.798032 0.106609
v 1.008441 0.798032 0.033827
v 0.991364 0.798032 -0.052026
v 1.008441 0.798032 -0.137878
v 1.057072 0.798032 -0.210660
v 1.129854 0.798032 -0.259292
v 1.215707 0.798032 -0.276369
v 1.301559 0.798032 -0.259292
v 1.215707 0.791988 -0.229508
v 1.147787 0.791988 -0.215998
v 1.090208 0.791988 -0.177525
v 1.051735 0.791988 -0.119945
v 1.038225 0.791988 -0.052026
v 1.051735 0.791988 0.015894
v 1.090208 0.791988 0.073473
v 1.147787 0.791988 0.111946
v 1.215707 0.791988 0.125456
v 1.283626 0.791988 0.111946
v 1.341206 0.791988 0.073473
v 1.379679 0.791988 0.015894
v 1.393189 0.791988 -0.052026
v 1.379679 0.791988 -0.119945
v 1.341206 0.791988 -0.177525
v 1.283626 0.791988 -0.215998
v 1.215707 0.791988 -0.052026
vn 0.0254 0.9915 -0.1279
vn 0.0254 0.9915 0.1279
vn -0.0254 0.9915 0.1279
vn -0.0254 0.9915 -0.1279
vn 0.0724 0.9915 0.1084
vn -0.0724 0.9915 -0.1084
vn 0.1084 0.9915 0.0724
vn -0.1084 0.9915 -0.0724
vn 0.1279 0.9915 0.0254
vn -0.1279 0.9915 -0.0254
vn 0.1279 0.9915 -0.0254
vn -0.1279 0.9915 0.0254
vn 0.1084 0.9915 -0.0724
vn -0.1084 0.9915 0.0724
vn 0.0724 0.9915 -0.1084
vn -0.0724 0.9915 0.1084
vn 0.0000 1.0000 0.0000
vn -0.0254 -0.9915 0.1279
vn -0.0254 -0.9915 -0.1279
vn 0.0254 -0.9915 -0.1279
vn 0.0254 -0.9915 0.1279
vn -0.0724 -0.9915 -0.1084
vn 0.0724 -0.9915 0.1084
vn -0.1084 -0.9915 -0.0724
vn 0.1084 -0.9915 0.0724
vn -0.1279 -0.9915 -0.0254
vn 0.1279 -0.9915 0.0254
vn -0.1279 -0.9915 0.0254
vn 0.1279 -0.9915 -0.0254
vn -0.1084 -0.9915 0.0724
vn 0.1084 -0.9915 -0.0724
vn -0.0724 -0.9915 0.1084
vn 0.0724 -0.9915 -0.1084
vn 0.0000 -1.0000 0.0000
vn -0.1951 0.0000 0.9808
vn -0.1951 0.0000 -0.9808
vn 0.1951 0.0000 -0.9808
vn 0.1951 0.0000 0.9808
vn -0.5556 0.0000 -0.8315
vn 0.5556 0.0000 0.8315
vn -0.8315 0.0000 -0.5556
vn 0.8315 0.0000 0.5556
vn -0.9808 0.0000 -0.1951
vn 0.9808 0.0000 0.1951
vn -0.9808 0.0000 0.1951
vn 0.9808 0.0000 -0.1951
vn -0.8315 0.0000 0.5556
vn 0.8315 0.0000 -0.5556
vn -0.5556 0.0000 0.8315
vn 0.5556 0.0000 -0.8315
s off
f 25//1 8//1 9//1
f 18//2 1//2 2//2
f 17//3 16//3 1//3
f 10//4 25//4 9//4
f 19//5 2//5 3//5
f 27//6 10//6 11//6
f 20//7 3//7 4//7
f 28//8 11//8 12//8
f 21//9 4//9 5//9
f 13//10 28//10 12//10
f 22//11 5//11 6//11
f 30//12 13//12 14//12
f 23//13 6//13 7//13
f 31//14 14//14 15//14
f 24//15 7//15 8//15
f 32//16 15//16 16//16
f 31//17 33//17 30//17
f 24//17 33//17 23//17
f 32//17 33//17 31//17
f 25//17 33//17 24//17
f 18//17 33//17 17//17
f 17//17 33//17 32//17
f 26//17 33//17 25//17
f 19//17 33//17 18//17
f 27//17 33//17 26//17
f 20//17 33//17 19//17
f 28//17 33//17 27//17
f 21//17 33//17 20//17
f 29//17 33//17 28//17
f 22//17 33//17 21//17
f 30//17 33//17 29//17
f 23//17 33//17 22//17
f 41//18 58//18 40//18
f 48//19 51//19 47//19
f 49//20 50//20 48//20
f 40//21 59//21 39//21
f 47//22 52//22 46//22
f 39//23 60//23 38//23
f 46//24 53//24 45//24
f 38//25 61//25 37//25
f 45//26 54//26 44//26
f 36//27 61//27 62//27
f 44//28 55//28 43//28
f 36//29 63//29 35//29
f 43//30 56//30 42//30
f 35//31 64//31 34//31
f 42//32 57//32 41//32
f 34//33 65//33 49//33
f 64//34 63//34 66//34
f 57//34 56//34 66//34
f 65//34 64//34 66//34
f 58//34 57//34 66//34
f 51//34 50//34 66//34
f 50//34 65//34 66//34
f 59//34 58//34 66//34
f 52//34 51//34 66//34
f 60//34 59//34 66//34
f 53//34 52//34 66//34
f 61//34 60//34 66//34
f 54//34 53//34 66//34
f 62//34 61//34 66//34
f 55//34 54//34 66//34
f 63//34 62//34 66//34
f 56//34 55//34 66//34
f 8//35 40//35 9//35
f 1//36 47//36 2//36
f 16//37 48//37 1//37
f 9//38 39//38 10//38
f 2//39 46//39 3//39
f 10//40 38//40 11//40
f 3//41 45//41 4//41
f 11//42 37//42 12//42
f 4//43 44//43 5//43
f 12//44 36//44 13//44
f 5//45 43//45 6//45
f 13//46 35//46 14//46
f 6//47 42//47 7//47
f 14//48 34//48 15//48
f 7//49 41//49 8//49
f 15//50 49//50 16//50
f 25//1 24//1 8//1
f 18//2 17//2 1//2
f 17//3 32//3 16//3
f 10//4 26//4 25//4
f 19//5 18//5 2//5
f 27//6 26//6 10//6
f 20//7 19//7 3//7
f 28//8 27//8 11//8
f 21//9 20//9 4//9
f 13//10 29//10 28//10
f 22//11 21//11 5//11
f 30//12 29//12 13//12
f 23//13 22//13 6//13
f 31//14 30//14 14//14
f 24//15 23//15 7//15
f 32//16 31//16 15//16
f 41//18 57//18 58//18
f 48//19 50//19 51//19
f 49//20 65//20 50//20
f 40//21 58//21 59//21
f 47//22 51//22 52//22
f 39//23 59//23 60//23
f 46//24 52//24 53//24
f 38//25 60//25 61//25
f 45//26 53//26 54//26
f 36//27 37//27 61//27
f 44//28 54//28 55//28
f 36//29 62//29 63//29
f 43//30 55//30 56//30
f 35//31 63//31 64//31
f 42//32 56//32 57//32
f 34//33 64//33 65//33
f 8//35 41//35 40//35
f 1//36 48//36 47//36
f 16//37 49//37 48//37
f 9//38 40//38 39//38
f 2//39 47//39 46//39
f 10//40 39//40 38//40
f 3//41 46//41 45//41
f 11//42 38//42 37//42
f 4//43 45//43 44//43
f 12//44 37//44 36//44
f 5//45 44//45 43//45
f 13//46 36//46 35//46
f 6//47 43//47 42//47
f 14//48 35//48 34//48
f 7//49 42//49 41//49
f 15//50 34//50 49//50
