# Blender v2.79 (sub 0) OBJ File: 'Blend.blend'
# www.blender.org
o Sofa_Cube.029
v 2.891207 0.000000 -3.961133
v 2.891207 0.141832 -3.961133
v 2.891207 0.000000 -4.028923
v 2.891207 0.141832 -4.028923
v 2.972994 0.000000 -3.961133
v 2.972994 0.141832 -3.961133
v 2.972994 0.000000 -4.028923
v 2.972994 0.141832 -4.028923
v 2.008123 0.000000 -3.961133
v 2.008123 0.141832 -3.961133
v 2.008123 0.000000 -4.028923
v 2.008123 0.141832 -4.028923
v 2.089909 0.000000 -3.961133
v 2.089909 0.141832 -3.961133
v 2.089909 0.000000 -4.028923
v 2.089909 0.141832 -4.028923
v 2.008123 0.000000 -1.793890
v 2.008123 0.141832 -1.793890
v 2.008123 0.000000 -1.861680
v 2.008123 0.141832 -1.861680
v 2.089909 0.000000 -1.793890
v 2.089909 0.141832 -1.793890
v 2.089909 0.000000 -1.861680
v 2.089909 0.141832 -1.861680
v 2.891208 0.000000 -1.793890
v 2.891208 0.141832 -1.793890
v 2.891208 0.000000 -1.861680
v 2.891208 0.141832 -1.861680
v 2.972994 0.000000 -1.793890
v 2.972994 0.141832 -1.793890
v 2.972994 0.000000 -1.861680
v 2.972994 0.141832 -1.861680
v 2.133577 0.965367 -2.936133
v 2.140523 0.965367 -2.929304
v 2.140523 0.969411 -2.936133
v 2.280783 0.965367 -2.929304
v 2.287729 0.965367 -2.936133
v 2.280783 0.969411 -2.936133
v 2.133577 0.965367 -3.920524
v 2.140523 0.969411 -3.920524
v 2.140523 0.965367 -3.927353
v 2.287729 0.965367 -3.920524
v 2.280783 0.965367 -3.927353
v 2.280783 0.969411 -3.920524
v 2.133578 0.382515 -2.936133
v 2.140523 0.378472 -2.936133
v 2.140523 0.382515 -2.929304
v 2.287729 0.382515 -2.936133
v 2.280783 0.382515 -2.929304
v 2.280783 0.378472 -2.936133
v 2.133578 0.382515 -3.920524
v 2.140523 0.382515 -3.927353
v 2.140523 0.378472 -3.920524
v 2.287729 0.382515 -3.920524
v 2.280783 0.378472 -3.920524
v 2.280783 0.382515 -3.927353
v 2.133577 0.965367 -1.921575
v 2.140523 0.965367 -1.914746
v 2.140523 0.969411 -1.921575
v 2.280783 0.965367 -1.914746
v 2.287729 0.965367 -1.921575
v 2.280783 0.969411 -1.921575
v 2.133577 0.965367 -2.905966
v 2.140523 0.969411 -2.905966
v 2.140523 0.965367 -2.912795
v 2.287729 0.965367 -2.905966
v 2.280783 0.965367 -2.912795
v 2.280783 0.969411 -2.905966
v 2.133578 0.382515 -1.921575
v 2.140523 0.378472 -1.921575
v 2.140523 0.382515 -1.914746
v 2.287729 0.382515 -1.921575
v 2.280783 0.382515 -1.914746
v 2.280783 0.378472 -1.921575
v 2.133578 0.382515 -2.905966
v 2.140523 0.382515 -2.912795
v 2.140523 0.378472 -2.905966
v 2.287729 0.382515 -2.905966
v 2.280783 0.378472 -2.905966
v 2.280783 0.382515 -2.912795
v 2.190401 0.265113 -1.921575
v 2.190401 0.270344 -1.914746
v 2.185031 0.270344 -1.921575
v 2.190401 0.375964 -1.914746
v 2.190401 0.381195 -1.921575
v 2.185031 0.375964 -1.921575
v 2.190401 0.265113 -2.905966
v 2.185031 0.270344 -2.905966
v 2.190401 0.270344 -2.912795
v 2.190401 0.381195 -2.905966
v 2.190401 0.375964 -2.912795
v 2.185031 0.375964 -2.905966
v 2.964407 0.265113 -1.921575
v 2.969777 0.270344 -1.921575
v 2.964407 0.270344 -1.914746
v 2.964407 0.381195 -1.921575
v 2.964407 0.375964 -1.914746
v 2.969777 0.375964 -1.921575
v 2.964407 0.265113 -2.905966
v 2.964407 0.270344 -2.912795
v 2.969777 0.270344 -2.905966
v 2.964407 0.381195 -2.905966
v 2.969777 0.375964 -2.905966
v 2.964407 0.375964 -2.912795
v 2.190401 0.265113 -2.936133
v 2.190401 0.270344 -2.929304
v 2.185031 0.270344 -2.936133
v 2.190401 0.375964 -2.929304
v 2.190401 0.381195 -2.936133
v 2.185031 0.375964 -2.936133
v 2.190401 0.265113 -3.920524
v 2.185031 0.270344 -3.920524
v 2.190401 0.270344 -3.927353
v 2.190401 0.381195 -3.920524
v 2.190401 0.375964 -3.927353
v 2.185031 0.375964 -3.920524
v 2.964407 0.265113 -2.936133
v 2.969777 0.270344 -2.936133
v 2.964407 0.270344 -2.929304
v 2.964407 0.381195 -2.936133
v 2.964407 0.375964 -2.929304
v 2.969777 0.375964 -2.936133
v 2.964407 0.265113 -3.920524
v 2.964407 0.270344 -3.927353
v 2.969777 0.270344 -3.920524
v 2.964407 0.381195 -3.920524
v 2.969777 0.375964 -3.920524
v 2.964407 0.375964 -3.927353
v 2.838531 0.561218 -3.922181
v 2.843349 0.561218 -3.927938
v 2.838531 0.563354 -3.927938
v 2.843349 0.561218 -4.044195
v 2.838531 0.561218 -4.049953
v 2.838531 0.563354 -4.044195
v 2.144061 0.561218 -3.922181
v 2.144061 0.563354 -3.927938
v 2.139243 0.561218 -3.927938
v 2.144061 0.561218 -4.049953
v 2.139243 0.561218 -4.044195
v 2.144061 0.563354 -4.044195
v 2.838531 0.253328 -3.922181
v 2.838531 0.251192 -3.927938
v 2.843349 0.253328 -3.927938
v 2.838531 0.253328 -4.049953
v 2.843349 0.253328 -4.044195
v 2.838531 0.251192 -4.044195
v 2.144061 0.253328 -3.922181
v 2.139243 0.253328 -3.927938
v 2.144061 0.251192 -3.927938
v 2.144061 0.253328 -4.049953
v 2.144061 0.251192 -4.044195
v 2.139243 0.253328 -4.044195
v 2.838531 0.561218 -1.777862
v 2.843349 0.561218 -1.783619
v 2.838531 0.563354 -1.783619
v 2.843349 0.561218 -1.899876
v 2.838531 0.561218 -1.905633
v 2.838531 0.563354 -1.899876
v 2.144061 0.561218 -1.777862
v 2.144061 0.563354 -1.783619
v 2.139243 0.561218 -1.783619
v 2.144061 0.561218 -1.905633
v 2.139243 0.561218 -1.899876
v 2.144061 0.563354 -1.899876
v 2.838531 0.253328 -1.777862
v 2.838531 0.251192 -1.783619
v 2.843349 0.253328 -1.783619
v 2.838531 0.253328 -1.905633
v 2.843349 0.253328 -1.899876
v 2.838531 0.251192 -1.899876
v 2.144061 0.253328 -1.777862
v 2.139243 0.253328 -1.783619
v 2.144061 0.251192 -1.783619
v 2.144061 0.253328 -1.905633
v 2.144061 0.251192 -1.899876
v 2.139243 0.253328 -1.899876
v 1.981787 1.009292 -1.785552
v 1.988732 1.009292 -1.769911
v 1.988732 1.014522 -1.785552
v 2.128993 1.009292 -1.769911
v 2.135938 1.009292 -1.785552
v 2.128993 1.014522 -1.785552
v 1.981787 1.009292 -4.040138
v 1.988732 1.014522 -4.040138
v 1.988732 1.009292 -4.055779
v 2.135938 1.009292 -4.040138
v 2.128993 1.009292 -4.055779
v 2.128993 1.014522 -4.040138
v 1.981787 0.255358 -1.785552
v 1.988733 0.250128 -1.785552
v 1.988733 0.255358 -1.769911
v 2.135938 0.255358 -1.785552
v 2.128993 0.255358 -1.769911
v 2.128993 0.250128 -1.785552
v 1.981787 0.255358 -4.040138
v 1.988732 0.255358 -4.055779
v 1.988732 0.250128 -4.040138
v 2.135938 0.255358 -4.040138
v 2.128993 0.250128 -4.040138
v 2.128993 0.255358 -4.055779
v 1.985337 0.130705 -1.785552
v 1.985337 0.135935 -1.769911
v 1.978391 0.135935 -1.785552
v 1.985337 0.241555 -1.769911
v 1.985337 0.246786 -1.785552
v 1.978391 0.241555 -1.785552
v 1.985337 0.130705 -4.040138
v 1.978391 0.135935 -4.040138
v 1.985337 0.135935 -4.055779
v 1.985337 0.246786 -4.040138
v 1.985337 0.241555 -4.055779
v 1.978391 0.241555 -4.040138
v 2.986535 0.130705 -1.785552
v 2.993480 0.135935 -1.785552
v 2.986535 0.135935 -1.769911
v 2.986535 0.246786 -1.785552
v 2.986535 0.241555 -1.769911
v 2.993480 0.241555 -1.785552
v 2.986535 0.130705 -4.040138
v 2.986535 0.135935 -4.055779
v 2.993480 0.135935 -4.040138
v 2.986535 0.246786 -4.040138
v 2.993480 0.241555 -4.040138
v 2.986535 0.241555 -4.055779
vn -1.0000 0.0000 0.0000
vn 0.0000 0.0000 -1.0000
vn 1.0000 0.0000 0.0000
vn 0.0000 0.0000 1.0000
vn 0.0000 -1.0000 0.0000
vn 0.0000 1.0000 0.0000
vn -0.4479 0.7694 0.4555
vn 0.4479 0.7694 0.4555
vn -0.4479 0.7694 -0.4555
vn 0.4479 0.7694 -0.4555
vn -0.4479 -0.7693 0.4555
vn 0.4479 -0.7694 0.4555
vn -0.4479 -0.7693 -0.4555
vn 0.4479 -0.7694 -0.4555
vn -0.5031 0.8642 0.0000
vn 0.0000 0.8605 0.5095
vn 0.5031 0.8642 0.0000
vn 0.0000 0.8605 -0.5095
vn -0.7011 -0.0000 -0.7131
vn 0.7011 0.0000 -0.7131
vn 0.0000 -0.8605 -0.5095
vn -0.5031 -0.8642 0.0000
vn 0.5031 -0.8642 0.0000
vn 0.0000 -0.8605 0.5095
vn -0.7011 -0.0000 0.7131
vn 0.7011 0.0000 0.7131
vn -0.4478 0.7694 -0.4555
vn -0.4479 -0.7694 -0.4555
vn -0.6117 -0.6280 0.4810
vn -0.6117 0.6280 0.4810
vn -0.6117 -0.6280 -0.4810
vn -0.6117 0.6280 -0.4810
vn 0.6118 -0.6280 0.4810
vn 0.6118 0.6280 0.4810
vn 0.6117 -0.6280 -0.4810
vn 0.6117 0.6280 -0.4810
vn -0.6978 -0.7163 0.0000
vn -0.7861 0.0000 0.6181
vn -0.6978 0.7163 0.0000
vn -0.7861 0.0000 -0.6181
vn 0.0000 -0.7939 -0.6081
vn 0.0000 0.7939 -0.6081
vn 0.7861 0.0000 -0.6181
vn 0.6978 -0.7163 0.0000
vn 0.6978 0.7163 0.0000
vn 0.7861 0.0000 0.6181
vn 0.0000 -0.7939 0.6080
vn 0.0000 0.7939 0.6080
vn -0.6118 -0.6280 -0.4810
vn 0.6117 -0.6280 0.4810
vn 0.6117 0.6280 0.4810
vn 0.6118 -0.6280 -0.4810
vn -0.6977 -0.7164 0.0000
vn -0.6977 0.7164 0.0000
vn 0.0000 -0.7939 -0.6080
vn 0.0000 0.7939 -0.6080
vn 0.3839 0.8657 0.3212
vn 0.3838 0.8658 -0.3212
vn -0.3838 0.8657 0.3212
vn -0.3838 0.8657 -0.3212
vn 0.3838 -0.8658 0.3212
vn 0.3839 -0.8657 -0.3212
vn -0.3838 -0.8657 0.3212
vn -0.3839 -0.8657 -0.3212
vn 0.0000 0.9376 0.3478
vn 0.4053 0.9142 0.0000
vn 0.0000 0.9376 -0.3478
vn -0.4053 0.9142 0.0000
vn -0.7669 0.0000 0.6417
vn -0.7669 0.0000 -0.6417
vn -0.4053 -0.9142 0.0000
vn 0.0000 -0.9376 0.3478
vn 0.0000 -0.9376 -0.3478
vn 0.4053 -0.9142 0.0000
vn 0.7669 0.0000 0.6418
vn 0.7669 0.0000 -0.6418
vn 0.3838 0.8657 0.3212
vn 0.3838 0.8657 -0.3212
vn -0.3838 0.8658 0.3212
vn 0.3838 -0.8657 0.3212
vn 0.3838 -0.8657 -0.3212
vn -0.3838 -0.8658 0.3212
vn -0.3838 -0.8657 -0.3212
vn -0.0000 0.9375 -0.3479
vn -0.7669 0.0000 0.6418
vn -0.7669 0.0000 -0.6418
vn 0.0000 -0.9375 -0.3479
vn 0.7669 0.0000 0.6417
vn -0.5812 0.7718 0.2581
vn 0.5812 0.7718 0.2581
vn -0.5812 0.7718 -0.2581
vn 0.5812 0.7718 -0.2581
vn -0.5812 -0.7718 0.2581
vn 0.5812 -0.7718 0.2581
vn -0.5812 -0.7718 -0.2581
vn 0.5812 -0.7718 -0.2581
vn -0.6015 0.7988 0.0000
vn 0.0000 0.9484 0.3171
vn 0.6016 0.7988 -0.0000
vn 0.0000 0.9484 -0.3171
vn -0.9139 0.0000 -0.4058
vn 0.9139 0.0000 -0.4058
vn 0.0000 -0.9484 -0.3171
vn -0.6016 -0.7988 0.0000
vn 0.6015 -0.7988 0.0000
vn 0.0000 -0.9484 0.3171
vn -0.9139 0.0000 0.4059
vn 0.9139 0.0000 0.4059
vn 0.5811 0.7718 -0.2581
vn 0.6016 -0.7988 -0.0000
vn 0.6015 0.7989 0.0000
vn 0.9139 0.0000 0.4058
vn -0.7011 0.0000 -0.7130
vn 0.7011 0.0000 -0.7130
vn 0.6977 -0.7164 0.0000
vn 0.6977 0.7164 0.0000
vn -0.6016 0.7988 0.0000
vn -0.9139 0.0000 -0.4059
vn 0.9139 0.0000 -0.4059
vn -0.6015 -0.7988 0.0000
vn 0.6015 -0.7989 -0.0000
s off
f 2//1 3//1 1//1
f 4//2 7//2 3//2
f 8//3 5//3 7//3
f 6//4 1//4 5//4
f 7//5 1//5 3//5
f 4//6 6//6 8//6
f 10//1 11//1 9//1
f 12//2 15//2 11//2
f 16//3 13//3 15//3
f 14//4 9//4 13//4
f 15//5 9//5 11//5
f 12//6 14//6 16//6
f 18//1 19//1 17//1
f 20//2 23//2 19//2
f 24//3 21//3 23//3
f 22//4 17//4 21//4
f 23//5 17//5 19//5
f 20//6 22//6 24//6
f 26//1 27//1 25//1
f 28//2 31//2 27//2
f 32//3 29//3 31//3
f 30//4 25//4 29//4
f 31//5 25//5 27//5
f 28//6 30//6 32//6
f 2//1 4//1 3//1
f 4//2 8//2 7//2
f 8//3 6//3 5//3
f 6//4 2//4 1//4
f 7//5 5//5 1//5
f 4//6 2//6 6//6
f 10//1 12//1 11//1
f 12//2 16//2 15//2
f 16//3 14//3 13//3
f 14//4 10//4 9//4
f 15//5 13//5 9//5
f 12//6 10//6 14//6
f 18//1 20//1 19//1
f 20//2 24//2 23//2
f 24//3 22//3 21//3
f 22//4 18//4 17//4
f 23//5 21//5 17//5
f 20//6 18//6 22//6
f 26//1 28//1 27//1
f 28//2 32//2 31//2
f 32//3 30//3 29//3
f 30//4 26//4 25//4
f 31//5 29//5 25//5
f 28//6 26//6 30//6
f 47//4 36//4 34//4
f 55//5 46//5 53//5
f 42//3 48//3 54//3
f 38//6 40//6 35//6
f 43//2 52//2 41//2
f 33//7 34//7 35//7
f 36//8 37//8 38//8
f 39//9 40//9 41//9
f 42//10 43//10 44//10
f 45//11 46//11 47//11
f 48//12 49//12 50//12
f 51//13 52//13 53//13
f 54//14 55//14 56//14
f 33//15 40//15 39//15
f 36//16 35//16 34//16
f 42//17 38//17 37//17
f 41//18 44//18 43//18
f 39//19 52//19 51//19
f 54//20 43//20 42//20
f 53//21 56//21 55//21
f 51//22 46//22 45//22
f 48//23 55//23 54//23
f 47//24 50//24 49//24
f 45//25 34//25 33//25
f 37//26 49//26 48//26
f 51//1 33//1 39//1
f 71//4 60//4 58//4
f 79//5 70//5 77//5
f 66//3 72//3 78//3
f 62//6 64//6 59//6
f 67//2 76//2 65//2
f 57//7 58//7 59//7
f 60//8 61//8 62//8
f 63//27 64//27 65//27
f 66//10 67//10 68//10
f 69//11 70//11 71//11
f 72//12 73//12 74//12
f 75//28 76//28 77//28
f 78//14 79//14 80//14
f 57//15 64//15 63//15
f 60//16 59//16 58//16
f 66//17 62//17 61//17
f 65//18 68//18 67//18
f 63//19 76//19 75//19
f 66//20 80//20 67//20
f 77//21 80//21 79//21
f 75//22 70//22 69//22
f 72//23 79//23 78//23
f 71//24 74//24 73//24
f 69//25 58//25 57//25
f 61//26 73//26 72//26
f 75//1 57//1 63//1
f 97//4 82//4 95//4
f 103//3 94//3 101//3
f 90//6 96//6 102//6
f 86//1 88//1 83//1
f 91//2 100//2 89//2
f 81//29 82//29 83//29
f 84//30 85//30 86//30
f 87//31 88//31 89//31
f 90//32 91//32 92//32
f 93//33 94//33 95//33
f 96//34 97//34 98//34
f 99//35 100//35 101//35
f 102//36 103//36 104//36
f 81//37 88//37 87//37
f 84//38 83//38 82//38
f 90//39 86//39 85//39
f 89//40 92//40 91//40
f 87//41 100//41 99//41
f 102//42 91//42 90//42
f 101//43 104//43 103//43
f 99//44 94//44 93//44
f 96//45 103//45 102//45
f 95//46 98//46 97//46
f 93//47 82//47 81//47
f 85//48 97//48 96//48
f 99//5 81//5 87//5
f 121//4 106//4 119//4
f 127//3 118//3 125//3
f 114//6 120//6 126//6
f 110//1 112//1 107//1
f 115//2 124//2 113//2
f 105//29 106//29 107//29
f 108//30 109//30 110//30
f 111//49 112//49 113//49
f 114//32 115//32 116//32
f 117//50 118//50 119//50
f 120//51 121//51 122//51
f 123//52 124//52 125//52
f 126//36 127//36 128//36
f 105//53 112//53 111//53
f 108//38 107//38 106//38
f 114//54 110//54 109//54
f 113//40 116//40 115//40
f 111//55 124//55 123//55
f 126//56 115//56 114//56
f 125//43 128//43 127//43
f 123//44 118//44 117//44
f 120//45 127//45 126//45
f 119//46 122//46 121//46
f 117//47 106//47 105//47
f 109//48 121//48 120//48
f 123//5 105//5 111//5
f 145//3 130//3 143//3
f 151//5 142//5 149//5
f 138//2 144//2 150//2
f 134//6 136//6 131//6
f 139//1 148//1 137//1
f 129//57 130//57 131//57
f 132//58 133//58 134//58
f 135//59 136//59 137//59
f 138//60 139//60 140//60
f 141//61 142//61 143//61
f 144//62 145//62 146//62
f 147//63 148//63 149//63
f 150//64 151//64 152//64
f 129//65 136//65 135//65
f 132//66 131//66 130//66
f 138//67 134//67 133//67
f 137//68 140//68 139//68
f 135//69 148//69 147//69
f 150//70 139//70 138//70
f 149//71 152//71 151//71
f 147//72 142//72 141//72
f 144//73 151//73 150//73
f 143//74 146//74 145//74
f 141//75 130//75 129//75
f 133//76 145//76 144//76
f 147//4 129//4 135//4
f 169//3 154//3 167//3
f 175//5 166//5 173//5
f 162//2 168//2 174//2
f 158//6 160//6 155//6
f 163//1 172//1 161//1
f 153//77 154//77 155//77
f 156//78 157//78 158//78
f 159//79 160//79 161//79
f 162//60 163//60 164//60
f 165//80 166//80 167//80
f 168//81 169//81 170//81
f 171//82 172//82 173//82
f 174//83 175//83 176//83
f 153//65 160//65 159//65
f 156//66 155//66 154//66
f 157//84 164//84 158//84
f 161//68 164//68 163//68
f 159//85 172//85 171//85
f 174//86 163//86 162//86
f 173//71 176//71 175//71
f 171//72 166//72 165//72
f 168//87 175//87 174//87
f 167//74 170//74 169//74
f 165//88 154//88 153//88
f 157//76 169//76 168//76
f 171//4 153//4 159//4
f 191//4 180//4 178//4
f 199//5 190//5 197//5
f 186//3 192//3 198//3
f 182//6 184//6 179//6
f 187//2 196//2 185//2
f 177//89 178//89 179//89
f 180//90 181//90 182//90
f 183//91 184//91 185//91
f 186//92 187//92 188//92
f 189//93 190//93 191//93
f 192//94 193//94 194//94
f 195//95 196//95 197//95
f 198//96 199//96 200//96
f 177//97 184//97 183//97
f 180//98 179//98 178//98
f 186//99 182//99 181//99
f 185//100 188//100 187//100
f 183//101 196//101 195//101
f 198//102 187//102 186//102
f 197//103 200//103 199//103
f 195//104 190//104 189//104
f 192//105 199//105 198//105
f 191//106 194//106 193//106
f 189//107 178//107 177//107
f 181//108 193//108 192//108
f 195//1 177//1 183//1
f 217//4 202//4 215//4
f 223//3 214//3 221//3
f 210//6 216//6 222//6
f 206//1 208//1 203//1
f 211//2 220//2 209//2
f 201//93 202//93 203//93
f 204//89 205//89 206//89
f 207//95 208//95 209//95
f 210//91 211//91 212//91
f 213//94 214//94 215//94
f 216//90 217//90 218//90
f 219//96 220//96 221//96
f 222//109 223//109 224//109
f 201//104 208//104 207//104
f 204//107 203//107 202//107
f 210//97 206//97 205//97
f 209//101 212//101 211//101
f 207//103 220//103 219//103
f 222//100 211//100 210//100
f 221//102 224//102 223//102
f 219//110 214//110 213//110
f 222//111 218//111 223//111
f 215//112 218//112 217//112
f 213//106 202//106 201//106
f 205//98 217//98 216//98
f 219//5 201//5 207//5
f 47//4 49//4 36//4
f 55//5 50//5 46//5
f 42//3 37//3 48//3
f 38//6 44//6 40//6
f 43//2 56//2 52//2
f 33//15 35//15 40//15
f 36//16 38//16 35//16
f 42//17 44//17 38//17
f 41//18 40//18 44//18
f 39//113 41//113 52//113
f 54//114 56//114 43//114
f 53//21 52//21 56//21
f 51//22 53//22 46//22
f 48//23 50//23 55//23
f 47//24 46//24 50//24
f 45//25 47//25 34//25
f 37//26 36//26 49//26
f 51//1 45//1 33//1
f 71//4 73//4 60//4
f 79//5 74//5 70//5
f 66//3 61//3 72//3
f 62//6 68//6 64//6
f 67//2 80//2 76//2
f 57//15 59//15 64//15
f 60//16 62//16 59//16
f 66//17 68//17 62//17
f 65//18 64//18 68//18
f 63//19 65//19 76//19
f 66//20 78//20 80//20
f 77//21 76//21 80//21
f 75//22 77//22 70//22
f 72//23 74//23 79//23
f 71//24 70//24 74//24
f 69//25 71//25 58//25
f 61//26 60//26 73//26
f 75//1 69//1 57//1
f 97//4 84//4 82//4
f 103//3 98//3 94//3
f 90//6 85//6 96//6
f 86//1 92//1 88//1
f 91//2 104//2 100//2
f 81//53 83//53 88//53
f 84//38 86//38 83//38
f 90//54 92//54 86//54
f 89//40 88//40 92//40
f 87//41 89//41 100//41
f 102//42 104//42 91//42
f 101//43 100//43 104//43
f 99//44 101//44 94//44
f 96//45 98//45 103//45
f 95//46 94//46 98//46
f 93//47 95//47 82//47
f 85//48 84//48 97//48
f 99//5 93//5 81//5
f 121//4 108//4 106//4
f 127//3 122//3 118//3
f 114//6 109//6 120//6
f 110//1 116//1 112//1
f 115//2 128//2 124//2
f 105//37 107//37 112//37
f 108//38 110//38 107//38
f 114//39 116//39 110//39
f 113//40 112//40 116//40
f 111//55 113//55 124//55
f 126//56 128//56 115//56
f 125//43 124//43 128//43
f 123//115 125//115 118//115
f 120//116 122//116 127//116
f 119//46 118//46 122//46
f 117//47 119//47 106//47
f 109//48 108//48 121//48
f 123//5 117//5 105//5
f 145//3 132//3 130//3
f 151//5 146//5 142//5
f 138//2 133//2 144//2
f 134//6 140//6 136//6
f 139//1 152//1 148//1
f 129//65 131//65 136//65
f 132//66 134//66 131//66
f 138//67 140//67 134//67
f 137//68 136//68 140//68
f 135//69 137//69 148//69
f 150//70 152//70 139//70
f 149//71 148//71 152//71
f 147//72 149//72 142//72
f 144//73 146//73 151//73
f 143//74 142//74 146//74
f 141//75 143//75 130//75
f 133//76 132//76 145//76
f 147//4 141//4 129//4
f 169//3 156//3 154//3
f 175//5 170//5 166//5
f 162//2 157//2 168//2
f 158//6 164//6 160//6
f 163//1 176//1 172//1
f 153//65 155//65 160//65
f 156//66 158//66 155//66
f 157//84 162//84 164//84
f 161//68 160//68 164//68
f 159//85 161//85 172//85
f 174//86 176//86 163//86
f 173//71 172//71 176//71
f 171//72 173//72 166//72
f 168//87 170//87 175//87
f 167//74 166//74 170//74
f 165//75 167//75 154//75
f 157//76 156//76 169//76
f 171//4 165//4 153//4
f 191//4 193//4 180//4
f 199//5 194//5 190//5
f 186//3 181//3 192//3
f 182//6 188//6 184//6
f 187//2 200//2 196//2
f 177//117 179//117 184//117
f 180//98 182//98 179//98
f 186//99 188//99 182//99
f 185//100 184//100 188//100
f 183//118 185//118 196//118
f 198//119 200//119 187//119
f 197//103 196//103 200//103
f 195//120 197//120 190//120
f 192//110 194//110 199//110
f 191//106 190//106 194//106
f 189//107 191//107 178//107
f 181//108 180//108 193//108
f 195//1 189//1 177//1
f 217//4 204//4 202//4
f 223//3 218//3 214//3
f 210//6 205//6 216//6
f 206//1 212//1 208//1
f 211//2 224//2 220//2
f 201//120 203//120 208//120
f 204//107 206//107 203//107
f 210//117 212//117 206//117
f 209//101 208//101 212//101
f 207//103 209//103 220//103
f 222//100 224//100 211//100
f 221//119 220//119 224//119
f 219//121 221//121 214//121
f 222//99 216//99 218//99
f 215//112 214//112 218//112
f 213//106 215//106 202//106
f 205//98 204//98 217//98
f 219//5 213//5 201//5
