# Blender v2.79 (sub 0) OBJ File: 'Blend.blend'
# www.blender.org
o LivingRoomCupboard_Cube.009
v 0.076932 0.128330 -3.302815
v 0.076932 2.128330 -3.302815
v 0.076932 0.128330 -4.302815
v 0.076932 2.128330 -4.302815
v 0.476932 0.168330 -3.342815
v 0.476932 2.128330 -3.302815
v 0.476932 0.168330 -4.262815
v 0.476932 2.128330 -4.302815
v 0.076932 2.072499 -3.302815
v 0.076932 2.072499 -4.302815
v 0.476932 1.982499 -4.212815
v 0.476932 1.982499 -3.392815
v 0.076932 2.139128 -3.302815
v 0.076932 2.139128 -4.302815
v 0.476932 2.139128 -4.302815
v 0.476932 2.139128 -3.302815
v 0.071178 2.071696 -3.288428
v 0.071178 2.129133 -3.288428
v 0.071178 2.129133 -4.317203
v 0.482687 2.129133 -4.317203
v 0.482687 2.129133 -3.288428
v 0.071178 2.071696 -4.317203
v 0.482687 2.071696 -4.317203
v 0.482687 2.071696 -3.288428
v 0.076932 0.506139 -4.302815
v 0.476932 0.596139 -4.212815
v 0.476932 0.596139 -3.392815
v 0.076932 0.506139 -3.302815
v 0.076932 0.128330 -3.802815
v 0.076932 2.128330 -3.802815
v 0.476932 0.168330 -3.842815
v 0.476932 2.128330 -3.802815
v 0.476932 1.982499 -3.892815
v 0.076932 2.072499 -3.802815
v 0.076932 2.139128 -3.802815
v 0.476932 2.139128 -3.802815
v 0.071178 2.129133 -3.802815
v 0.482687 2.129133 -3.802815
v 0.482687 2.071696 -3.802815
v 0.071178 2.071696 -3.802815
v 0.076932 0.506139 -3.802815
v 0.476932 0.596139 -3.892815
v 0.476932 2.072499 -4.302815
v 0.476932 0.466139 -4.262815
v 0.476932 1.982499 -3.712816
v 0.476932 0.596139 -3.712816
v 0.476932 2.072499 -3.802815
v 0.476932 2.072499 -3.302815
v 0.476932 0.466139 -3.342815
v 0.476932 0.466139 -3.842815
v 0.424392 1.982499 -4.212815
v 0.424392 1.982499 -3.392815
v 0.424392 0.596139 -4.212815
v 0.424392 0.596139 -3.392815
v 0.424392 1.982499 -3.892815
v 0.424392 0.596139 -3.892815
v 0.424392 1.982499 -3.712816
v 0.424392 0.596139 -3.712816
v 0.125973 0.506139 -4.288779
v 0.125973 0.506139 -3.316852
v 0.125973 2.094007 -3.316852
v 0.471318 0.506139 -4.288779
v 0.471318 0.506139 -3.316852
v 0.125973 2.094007 -4.288779
v 0.471318 2.094007 -3.316852
v 0.471318 2.094007 -4.288779
v 0.118893 0.740205 -3.316821
v 0.118893 0.773258 -3.316821
v 0.118893 0.740205 -4.288810
v 0.118893 0.773258 -4.288810
v 0.361628 0.740205 -3.316821
v 0.361628 0.773258 -3.316821
v 0.361628 0.740205 -4.288810
v 0.361628 0.773258 -4.288810
v 0.118893 1.053629 -3.316821
v 0.118893 1.086682 -3.316821
v 0.118893 1.053629 -4.288810
v 0.118893 1.086682 -4.288810
v 0.361628 1.053629 -3.316821
v 0.361628 1.086682 -3.316821
v 0.361628 1.053629 -4.288810
v 0.361628 1.086682 -4.288810
v 0.118893 1.367054 -3.316821
v 0.118893 1.400106 -3.316821
v 0.118893 1.367054 -4.288810
v 0.118893 1.400106 -4.288810
v 0.361628 1.367054 -3.316821
v 0.361628 1.400106 -3.316821
v 0.361628 1.367054 -4.288810
v 0.361628 1.400106 -4.288810
v 0.118893 1.680478 -3.316821
v 0.118893 1.713530 -3.316821
v 0.118893 1.680478 -4.288810
v 0.118893 1.713530 -4.288810
v 0.361628 1.680478 -3.316821
v 0.361628 1.713530 -3.316821
v 0.361628 1.680478 -4.288810
v 0.361628 1.713530 -4.288810
v 0.476932 1.370396 -3.825956
v 0.476932 1.208242 -3.825956
v 0.476932 1.370396 -3.869675
v 0.476932 1.208242 -3.869675
v 0.480778 1.357552 -3.856831
v 0.480778 1.357552 -3.838800
v 0.480778 1.221086 -3.838800
v 0.480778 1.221086 -3.856831
v 0.476932 1.330815 -3.825956
v 0.476932 1.247823 -3.825956
v 0.476932 1.247823 -3.869675
v 0.476932 1.330815 -3.869675
v 0.480778 1.234979 -3.838800
v 0.480778 1.343659 -3.838800
v 0.480778 1.343659 -3.856831
v 0.480778 1.234979 -3.856831
v 0.480778 1.370396 -3.869675
v 0.480778 1.370396 -3.825956
v 0.480778 1.208242 -3.825956
v 0.480778 1.208242 -3.869675
v 0.480778 1.247823 -3.825956
v 0.480778 1.247823 -3.869675
v 0.480778 1.330815 -3.869675
v 0.480778 1.330815 -3.825956
v 0.507739 1.357552 -3.856831
v 0.507739 1.357552 -3.838800
v 0.507739 1.221086 -3.838800
v 0.507739 1.221086 -3.856831
v 0.507739 1.234979 -3.838800
v 0.507739 1.234979 -3.856831
v 0.507739 1.343659 -3.856831
v 0.507739 1.343659 -3.838800
v 0.494259 1.221086 -3.856831
v 0.494259 1.221086 -3.838800
v 0.494259 1.234979 -3.838800
v 0.494259 1.234979 -3.856831
v 0.494259 1.343659 -3.838800
v 0.494259 1.357552 -3.838800
v 0.494259 1.343659 -3.856831
v 0.494259 1.357552 -3.856831
v 0.476932 1.370396 -3.737478
v 0.476932 1.208242 -3.737478
v 0.476932 1.370396 -3.781197
v 0.476932 1.208242 -3.781197
v 0.480778 1.357552 -3.768353
v 0.480778 1.357552 -3.750323
v 0.480778 1.221086 -3.750323
v 0.480778 1.221086 -3.768353
v 0.476932 1.330815 -3.737478
v 0.476932 1.247823 -3.737478
v 0.476932 1.247823 -3.781197
v 0.476932 1.330815 -3.781197
v 0.480778 1.234979 -3.750323
v 0.480778 1.343659 -3.750323
v 0.480778 1.343659 -3.768353
v 0.480778 1.234979 -3.768353
v 0.480778 1.370396 -3.781197
v 0.480778 1.370396 -3.737478
v 0.480778 1.208242 -3.737478
v 0.480778 1.208242 -3.781197
v 0.480778 1.247823 -3.737478
v 0.480778 1.247823 -3.781197
v 0.480778 1.330815 -3.781197
v 0.480778 1.330815 -3.737478
v 0.507739 1.357552 -3.768353
v 0.507739 1.357552 -3.750323
v 0.507739 1.221086 -3.750323
v 0.507739 1.221086 -3.768353
v 0.507739 1.234979 -3.750323
v 0.507739 1.234979 -3.768353
v 0.507739 1.343659 -3.768353
v 0.507739 1.343659 -3.750323
v 0.494259 1.221086 -3.768353
v 0.494259 1.221086 -3.750323
v 0.494259 1.234979 -3.750323
v 0.494259 1.234979 -3.768353
v 0.494259 1.343659 -3.750323
v 0.494259 1.357552 -3.750323
v 0.494259 1.343659 -3.768353
v 0.494259 1.357552 -3.768353
v 0.082786 0.000000 -4.246060
v 0.082786 0.128330 -4.246060
v 0.082786 0.000000 -4.299173
v 0.082786 0.128330 -4.299173
v 0.131117 0.000000 -4.246060
v 0.131117 0.128330 -4.246060
v 0.131117 0.000000 -4.299173
v 0.131117 0.128330 -4.299173
v 0.420855 0.000000 -4.246060
v 0.420855 0.128330 -4.246060
v 0.420855 0.000000 -4.299173
v 0.420855 0.128330 -4.299173
v 0.469186 0.000000 -4.246060
v 0.469186 0.128330 -4.246060
v 0.469186 0.000000 -4.299173
v 0.469186 0.128330 -4.299173
v 0.082786 0.000000 -3.314887
v 0.082786 0.128330 -3.314887
v 0.082786 0.000000 -3.368001
v 0.082786 0.128330 -3.368001
v 0.131117 0.000000 -3.314887
v 0.131117 0.128330 -3.314887
v 0.131117 0.000000 -3.368001
v 0.131117 0.128330 -3.368001
v 0.420855 0.000000 -3.314887
v 0.420855 0.128330 -3.314887
v 0.420855 0.000000 -3.368001
v 0.420855 0.128330 -3.368001
v 0.469186 0.000000 -3.314887
v 0.469186 0.128330 -3.314887
v 0.469186 0.000000 -3.368001
v 0.469186 0.128330 -3.368001
v 0.476932 0.506139 -4.302815
v 0.476932 0.128330 -4.302815
v 0.476932 0.168330 -3.762815
v 0.476932 0.466139 -3.762815
v 0.476932 0.506139 -3.302815
v 0.476932 0.128330 -3.302815
v 0.476932 0.506139 -3.802815
v 0.476932 0.128330 -3.802815
v 0.488526 0.466139 -4.262815
v 0.488526 0.168330 -4.262815
v 0.488526 0.168330 -3.842815
v 0.488526 0.466139 -3.842815
v 0.488526 0.466139 -3.342815
v 0.488526 0.168330 -3.342815
v 0.488526 0.466139 -3.762815
v 0.488526 0.168330 -3.762815
v 0.488526 0.287964 -3.973552
v 0.488526 0.287964 -4.135706
v 0.488526 0.331683 -3.973552
v 0.488526 0.331683 -4.135706
v 0.492371 0.318839 -3.986395
v 0.492371 0.300808 -3.986395
v 0.492371 0.300808 -4.122862
v 0.492371 0.318839 -4.122862
v 0.488526 0.287964 -4.013133
v 0.488526 0.287964 -4.096125
v 0.488526 0.331683 -4.096125
v 0.488526 0.331683 -4.013133
v 0.492371 0.300808 -4.108969
v 0.492371 0.300808 -4.000289
v 0.492371 0.318839 -4.000289
v 0.492371 0.318839 -4.108969
v 0.492371 0.331683 -3.973552
v 0.492371 0.287964 -3.973552
v 0.492371 0.287964 -4.135706
v 0.492371 0.331683 -4.135706
v 0.492371 0.287964 -4.096125
v 0.492371 0.331683 -4.096125
v 0.492371 0.331683 -4.013133
v 0.492371 0.287964 -4.013133
v 0.519333 0.318839 -3.986395
v 0.519333 0.300808 -3.986395
v 0.519333 0.300808 -4.122862
v 0.519333 0.318839 -4.122862
v 0.519333 0.300808 -4.108969
v 0.519333 0.318839 -4.108969
v 0.519333 0.318839 -4.000289
v 0.519333 0.300808 -4.000289
v 0.505852 0.318839 -4.122862
v 0.505852 0.300808 -4.122862
v 0.505852 0.300808 -4.108969
v 0.505852 0.318839 -4.108969
v 0.505852 0.300808 -4.000289
v 0.505852 0.300808 -3.986395
v 0.505852 0.318839 -4.000289
v 0.505852 0.318839 -3.986395
v 0.488526 0.287964 -3.472862
v 0.488526 0.287964 -3.635017
v 0.488526 0.331683 -3.472862
v 0.488526 0.331683 -3.635017
v 0.492371 0.318839 -3.485707
v 0.492371 0.300808 -3.485707
v 0.492371 0.300808 -3.622173
v 0.492371 0.318839 -3.622173
v 0.488526 0.287964 -3.512444
v 0.488526 0.287964 -3.595436
v 0.488526 0.331683 -3.595436
v 0.488526 0.331683 -3.512444
v 0.492371 0.300808 -3.608280
v 0.492371 0.300808 -3.499600
v 0.492371 0.318839 -3.499600
v 0.492371 0.318839 -3.608280
v 0.492371 0.331683 -3.472862
v 0.492371 0.287964 -3.472862
v 0.492371 0.287964 -3.635017
v 0.492371 0.331683 -3.635017
v 0.492371 0.287964 -3.595436
v 0.492371 0.331683 -3.595436
v 0.492371 0.331683 -3.512444
v 0.492371 0.287964 -3.512444
v 0.519333 0.318839 -3.485707
v 0.519333 0.300808 -3.485707
v 0.519333 0.300808 -3.622173
v 0.519333 0.318839 -3.622173
v 0.519333 0.300808 -3.608280
v 0.519333 0.318839 -3.608280
v 0.519333 0.318839 -3.499600
v 0.519333 0.300808 -3.499600
v 0.505852 0.318839 -3.622173
v 0.505852 0.300808 -3.622173
v 0.505852 0.300808 -3.608280
v 0.505852 0.318839 -3.608280
v 0.505852 0.300808 -3.499600
v 0.505852 0.300808 -3.485707
v 0.505852 0.318839 -3.499600
v 0.505852 0.318839 -3.485707
vn 0.0000 0.0000 -1.0000
vn -1.0000 0.0000 0.0000
vn 0.0000 1.0000 0.0000
vn 0.0000 -1.0000 0.0000
vn 0.0000 0.0000 1.0000
vn 1.0000 0.0000 0.0000
vn 0.1383 -0.9904 0.0000
vn 0.0000 0.9984 0.0557
vn 0.0000 -0.9984 -0.0558
vn 0.0000 -0.9984 0.0558
vn -0.1382 0.9904 0.0000
vn -0.1383 -0.9904 0.0000
vn 0.1382 0.9904 0.0000
vn 0.0000 0.9984 -0.0557
vn 0.0000 -0.9984 -0.0557
vn 0.0000 -0.9984 0.0557
s off
f 101//1 121//1 110//1
f 135//2 134//2 133//2
f 99//3 115//3 101//3
f 109//1 118//1 102//1
f 101//2 107//2 99//2
f 102//4 117//4 100//4
f 109//2 100//2 108//2
f 135//5 124//5 136//5
f 107//5 116//5 99//5
f 119//5 107//5 108//5
f 121//1 109//1 110//1
f 120//6 122//6 119//6
f 108//2 110//2 109//2
f 100//5 119//5 108//5
f 103//6 116//6 104//6
f 105//6 118//6 106//6
f 114//6 119//6 111//6
f 112//6 121//6 113//6
f 111//6 117//6 105//6
f 112//6 116//6 122//6
f 113//6 115//6 103//6
f 114//6 118//6 120//6
f 130//6 123//6 124//6
f 125//6 128//6 127//6
f 131//4 125//4 132//4
f 138//1 129//1 137//1
f 132//5 127//5 133//5
f 130//5 133//5 127//5
f 136//3 123//3 138//3
f 134//1 126//1 131//1
f 114//1 131//1 106//1
f 111//3 134//3 114//3
f 105//5 133//5 111//5
f 106//4 132//4 105//4
f 104//3 138//3 103//3
f 103//1 137//1 113//1
f 112//5 136//5 104//5
f 113//4 135//4 112//4
f 137//1 128//1 134//1
f 129//6 127//6 128//6
f 141//1 161//1 150//1
f 175//2 174//2 173//2
f 139//3 155//3 141//3
f 149//1 158//1 142//1
f 141//2 147//2 139//2
f 142//4 157//4 140//4
f 149//2 140//2 148//2
f 175//5 164//5 176//5
f 147//5 156//5 139//5
f 159//5 147//5 148//5
f 161//1 149//1 150//1
f 160//6 162//6 159//6
f 148//2 150//2 149//2
f 140//5 159//5 148//5
f 143//6 156//6 144//6
f 145//6 158//6 146//6
f 154//6 159//6 151//6
f 152//6 161//6 153//6
f 151//6 157//6 145//6
f 152//6 156//6 162//6
f 153//6 155//6 143//6
f 154//6 158//6 160//6
f 170//6 163//6 164//6
f 165//6 168//6 167//6
f 171//4 165//4 172//4
f 178//1 169//1 177//1
f 172//5 167//5 173//5
f 170//5 173//5 167//5
f 176//3 163//3 178//3
f 174//1 166//1 171//1
f 154//1 171//1 146//1
f 151//3 174//3 154//3
f 145//5 173//5 151//5
f 146//4 172//4 145//4
f 144//3 178//3 143//3
f 143//1 177//1 153//1
f 152//5 176//5 144//5
f 153//4 175//4 152//4
f 177//1 168//1 174//1
f 169//6 167//6 168//6
f 229//3 249//3 238//3
f 263//2 262//2 261//2
f 227//5 243//5 229//5
f 237//3 246//3 230//3
f 229//2 235//2 227//2
f 230//1 245//1 228//1
f 237//2 228//2 236//2
f 263//4 252//4 264//4
f 235//4 244//4 227//4
f 247//4 235//4 236//4
f 249//3 237//3 238//3
f 248//6 250//6 247//6
f 236//2 238//2 237//2
f 228//4 247//4 236//4
f 231//6 244//6 232//6
f 233//6 246//6 234//6
f 242//6 247//6 239//6
f 241//6 250//6 249//6
f 239//6 245//6 233//6
f 232//6 250//6 240//6
f 231//6 249//6 243//6
f 234//6 248//6 242//6
f 258//6 251//6 252//6
f 253//6 256//6 255//6
f 259//1 253//1 260//1
f 266//3 257//3 265//3
f 260//4 255//4 261//4
f 258//4 261//4 255//4
f 264//5 251//5 266//5
f 262//3 254//3 259//3
f 242//3 259//3 234//3
f 239//5 262//5 242//5
f 233//4 261//4 239//4
f 234//1 260//1 233//1
f 232//5 266//5 231//5
f 231//3 265//3 241//3
f 240//4 264//4 232//4
f 241//1 263//1 240//1
f 265//3 256//3 262//3
f 257//6 255//6 256//6
f 269//3 289//3 278//3
f 303//2 302//2 301//2
f 267//5 283//5 269//5
f 277//3 286//3 270//3
f 269//2 275//2 267//2
f 270//1 285//1 268//1
f 277//2 268//2 276//2
f 303//4 292//4 304//4
f 275//4 284//4 267//4
f 287//4 275//4 276//4
f 289//3 277//3 278//3
f 288//6 290//6 287//6
f 276//2 278//2 277//2
f 268//4 287//4 276//4
f 271//6 284//6 272//6
f 273//6 286//6 274//6
f 282//6 287//6 279//6
f 281//6 290//6 289//6
f 279//6 285//6 273//6
f 272//6 290//6 280//6
f 271//6 289//6 283//6
f 274//6 288//6 282//6
f 298//6 291//6 292//6
f 293//6 296//6 295//6
f 299//1 293//1 300//1
f 306//3 297//3 305//3
f 300//4 295//4 301//4
f 298//4 301//4 295//4
f 304//5 291//5 306//5
f 302//3 294//3 299//3
f 282//3 299//3 274//3
f 279//5 302//5 282//5
f 273//4 301//4 279//4
f 274//1 300//1 273//1
f 272//5 306//5 271//5
f 271//3 305//3 281//3
f 280//4 304//4 272//4
f 281//1 303//1 280//1
f 305//3 296//3 302//3
f 297//6 295//6 296//6
f 101//1 115//1 121//1
f 135//2 137//2 134//2
f 99//3 116//3 115//3
f 109//1 120//1 118//1
f 101//2 110//2 107//2
f 102//4 118//4 117//4
f 109//2 102//2 100//2
f 135//5 130//5 124//5
f 107//5 122//5 116//5
f 119//5 122//5 107//5
f 121//1 120//1 109//1
f 120//6 121//6 122//6
f 108//2 107//2 110//2
f 100//5 117//5 119//5
f 103//6 115//6 116//6
f 105//6 117//6 118//6
f 114//6 120//6 119//6
f 112//6 122//6 121//6
f 111//6 119//6 117//6
f 112//6 104//6 116//6
f 113//6 121//6 115//6
f 114//6 106//6 118//6
f 130//6 129//6 123//6
f 125//6 126//6 128//6
f 131//4 126//4 125//4
f 138//1 123//1 129//1
f 132//5 125//5 127//5
f 130//5 135//5 133//5
f 136//3 124//3 123//3
f 134//1 128//1 126//1
f 114//1 134//1 131//1
f 111//3 133//3 134//3
f 105//5 132//5 133//5
f 106//4 131//4 132//4
f 104//3 136//3 138//3
f 103//1 138//1 137//1
f 112//5 135//5 136//5
f 113//4 137//4 135//4
f 137//1 129//1 128//1
f 129//6 130//6 127//6
f 141//1 155//1 161//1
f 175//2 177//2 174//2
f 139//3 156//3 155//3
f 149//1 160//1 158//1
f 141//2 150//2 147//2
f 142//4 158//4 157//4
f 149//2 142//2 140//2
f 175//5 170//5 164//5
f 147//5 162//5 156//5
f 159//5 162//5 147//5
f 161//1 160//1 149//1
f 160//6 161//6 162//6
f 148//2 147//2 150//2
f 140//5 157//5 159//5
f 143//6 155//6 156//6
f 145//6 157//6 158//6
f 154//6 160//6 159//6
f 152//6 162//6 161//6
f 151//6 159//6 157//6
f 152//6 144//6 156//6
f 153//6 161//6 155//6
f 154//6 146//6 158//6
f 170//6 169//6 163//6
f 165//6 166//6 168//6
f 171//4 166//4 165//4
f 178//1 163//1 169//1
f 172//5 165//5 167//5
f 170//5 175//5 173//5
f 176//3 164//3 163//3
f 174//1 168//1 166//1
f 154//1 174//1 171//1
f 151//3 173//3 174//3
f 145//5 172//5 173//5
f 146//4 171//4 172//4
f 144//3 176//3 178//3
f 143//1 178//1 177//1
f 152//5 175//5 176//5
f 153//4 177//4 175//4
f 177//1 169//1 168//1
f 169//6 170//6 167//6
f 229//3 243//3 249//3
f 263//2 265//2 262//2
f 227//5 244//5 243//5
f 237//3 248//3 246//3
f 229//2 238//2 235//2
f 230//1 246//1 245//1
f 237//2 230//2 228//2
f 263//4 258//4 252//4
f 235//4 250//4 244//4
f 247//4 250//4 235//4
f 249//3 248//3 237//3
f 248//6 249//6 250//6
f 236//2 235//2 238//2
f 228//4 245//4 247//4
f 231//6 243//6 244//6
f 233//6 245//6 246//6
f 242//6 248//6 247//6
f 241//6 240//6 250//6
f 239//6 247//6 245//6
f 232//6 244//6 250//6
f 231//6 241//6 249//6
f 234//6 246//6 248//6
f 258//6 257//6 251//6
f 253//6 254//6 256//6
f 259//1 254//1 253//1
f 266//3 251//3 257//3
f 260//4 253//4 255//4
f 258//4 263//4 261//4
f 264//5 252//5 251//5
f 262//3 256//3 254//3
f 242//3 262//3 259//3
f 239//5 261//5 262//5
f 233//4 260//4 261//4
f 234//1 259//1 260//1
f 232//5 264//5 266//5
f 231//3 266//3 265//3
f 240//4 263//4 264//4
f 241//1 265//1 263//1
f 265//3 257//3 256//3
f 257//6 258//6 255//6
f 269//3 283//3 289//3
f 303//2 305//2 302//2
f 267//5 284//5 283//5
f 277//3 288//3 286//3
f 269//2 278//2 275//2
f 270//1 286//1 285//1
f 277//2 270//2 268//2
f 303//4 298//4 292//4
f 275//4 290//4 284//4
f 287//4 290//4 275//4
f 289//3 288//3 277//3
f 288//6 289//6 290//6
f 276//2 275//2 278//2
f 268//4 285//4 287//4
f 271//6 283//6 284//6
f 273//6 285//6 286//6
f 282//6 288//6 287//6
f 281//6 280//6 290//6
f 279//6 287//6 285//6
f 272//6 284//6 290//6
f 271//6 281//6 289//6
f 274//6 286//6 288//6
f 298//6 297//6 291//6
f 293//6 294//6 296//6
f 299//1 294//1 293//1
f 306//3 291//3 297//3
f 300//4 293//4 295//4
f 298//4 303//4 301//4
f 304//5 292//5 291//5
f 302//3 296//3 294//3
f 282//3 302//3 299//3
f 279//5 301//5 302//5
f 273//4 300//4 301//4
f 274//1 299//1 300//1
f 272//5 304//5 306//5
f 271//3 306//3 305//3
f 280//4 303//4 304//4
f 281//1 305//1 303//1
f 305//3 297//3 296//3
f 297//6 298//6 295//6
f 9//7 40//7 34//7
f 8//8 19//8 4//8
f 48//9 17//9 9//9
f 10//10 23//10 43//10
f 218//4 1//4 29//4
f 4//1 15//1 8//1
f 48//5 28//5 215//5
f 45//5 58//5 46//5
f 10//1 211//1 25//1
f 34//2 25//2 41//2
f 35//3 16//3 36//3
f 8//6 36//6 32//6
f 2//2 35//2 30//2
f 6//5 13//5 2//5
f 37//2 22//2 40//2
f 19//1 23//1 22//1
f 38//6 24//6 39//6
f 21//5 17//5 24//5
f 6//11 38//11 32//11
f 43//12 39//12 47//12
f 4//13 37//13 30//13
f 2//14 21//14 6//14
f 41//2 3//2 29//2
f 25//1 212//1 3//1
f 213//4 224//4 5//4
f 215//5 1//5 216//5
f 7//4 221//4 31//4
f 28//2 29//2 1//2
f 2//13 37//13 18//13
f 48//12 39//12 24//12
f 8//11 38//11 20//11
f 20//6 39//6 23//6
f 18//2 40//2 17//2
f 30//2 14//2 4//2
f 32//6 16//6 6//6
f 14//3 36//3 15//3
f 9//2 41//2 28//2
f 26//3 56//3 42//3
f 212//4 29//4 3//4
f 10//7 40//7 22//7
f 11//6 211//6 43//6
f 11//6 47//6 33//6
f 26//6 217//6 211//6
f 33//6 217//6 42//6
f 45//6 48//6 12//6
f 12//6 215//6 27//6
f 27//6 217//6 46//6
f 45//6 217//6 47//6
f 11//5 53//5 26//5
f 27//1 52//1 12//1
f 42//1 55//1 33//1
f 33//4 51//4 11//4
f 46//3 54//3 27//3
f 12//4 57//4 45//4
f 60//3 62//3 59//3
f 59//6 61//6 60//6
f 64//4 65//4 61//4
f 66//5 59//5 62//5
f 60//1 65//1 63//1
f 68//2 69//2 67//2
f 70//1 73//1 69//1
f 74//6 71//6 73//6
f 72//5 67//5 71//5
f 73//4 67//4 69//4
f 70//3 72//3 74//3
f 76//2 77//2 75//2
f 78//1 81//1 77//1
f 82//6 79//6 81//6
f 80//5 75//5 79//5
f 81//4 75//4 77//4
f 78//3 80//3 82//3
f 84//2 85//2 83//2
f 86//1 89//1 85//1
f 90//6 87//6 89//6
f 88//5 83//5 87//5
f 89//4 83//4 85//4
f 86//3 88//3 90//3
f 92//2 93//2 91//2
f 94//1 97//1 93//1
f 98//6 95//6 97//6
f 96//5 91//5 95//5
f 97//4 91//4 93//4
f 94//3 96//3 98//3
f 180//2 181//2 179//2
f 182//1 185//1 181//1
f 186//6 183//6 185//6
f 184//5 179//5 183//5
f 185//4 179//4 181//4
f 182//3 184//3 186//3
f 188//2 189//2 187//2
f 190//1 193//1 189//1
f 194//6 191//6 193//6
f 192//5 187//5 191//5
f 193//4 187//4 189//4
f 190//3 192//3 194//3
f 196//2 197//2 195//2
f 198//1 201//1 197//1
f 202//6 199//6 201//6
f 200//5 195//5 199//5
f 201//4 195//4 197//4
f 198//3 200//3 202//3
f 204//2 205//2 203//2
f 206//1 209//1 205//1
f 210//6 207//6 209//6
f 208//5 203//5 207//5
f 209//4 203//4 205//4
f 206//3 208//3 210//3
f 7//6 211//6 44//6
f 31//6 212//6 7//6
f 44//6 217//6 50//6
f 31//6 217//6 218//6
f 49//6 216//6 5//6
f 214//6 215//6 49//6
f 5//6 218//6 213//6
f 213//6 217//6 214//6
f 225//6 224//6 226//6
f 219//6 221//6 220//6
f 5//5 223//5 49//5
f 50//3 219//3 44//3
f 214//1 226//1 213//1
f 44//1 220//1 7//1
f 49//3 225//3 214//3
f 31//5 222//5 50//5
f 9//7 17//7 40//7
f 8//8 20//8 19//8
f 48//15 24//15 17//15
f 10//16 22//16 23//16
f 218//4 216//4 1//4
f 4//1 14//1 15//1
f 48//5 9//5 28//5
f 45//5 57//5 58//5
f 10//1 43//1 211//1
f 34//2 10//2 25//2
f 35//3 13//3 16//3
f 8//6 15//6 36//6
f 2//2 13//2 35//2
f 6//5 16//5 13//5
f 37//2 19//2 22//2
f 19//1 20//1 23//1
f 38//6 21//6 24//6
f 21//5 18//5 17//5
f 6//11 21//11 38//11
f 43//12 23//12 39//12
f 4//13 19//13 37//13
f 2//14 18//14 21//14
f 41//2 25//2 3//2
f 25//1 211//1 212//1
f 213//4 226//4 224//4
f 215//5 28//5 1//5
f 7//4 220//4 221//4
f 28//2 41//2 29//2
f 2//13 30//13 37//13
f 48//12 47//12 39//12
f 8//11 32//11 38//11
f 20//6 38//6 39//6
f 18//2 37//2 40//2
f 30//2 35//2 14//2
f 32//6 36//6 16//6
f 14//3 35//3 36//3
f 9//2 34//2 41//2
f 26//3 53//3 56//3
f 212//4 218//4 29//4
f 10//7 34//7 40//7
f 11//6 26//6 211//6
f 11//6 43//6 47//6
f 26//6 42//6 217//6
f 33//6 47//6 217//6
f 45//6 47//6 48//6
f 12//6 48//6 215//6
f 27//6 215//6 217//6
f 45//6 46//6 217//6
f 11//5 51//5 53//5
f 27//1 54//1 52//1
f 42//1 56//1 55//1
f 33//4 55//4 51//4
f 46//3 58//3 54//3
f 12//4 52//4 57//4
f 60//3 63//3 62//3
f 59//6 64//6 61//6
f 64//4 66//4 65//4
f 66//5 64//5 59//5
f 60//1 61//1 65//1
f 68//2 70//2 69//2
f 70//1 74//1 73//1
f 74//6 72//6 71//6
f 72//5 68//5 67//5
f 73//4 71//4 67//4
f 70//3 68//3 72//3
f 76//2 78//2 77//2
f 78//1 82//1 81//1
f 82//6 80//6 79//6
f 80//5 76//5 75//5
f 81//4 79//4 75//4
f 78//3 76//3 80//3
f 84//2 86//2 85//2
f 86//1 90//1 89//1
f 90//6 88//6 87//6
f 88//5 84//5 83//5
f 89//4 87//4 83//4
f 86//3 84//3 88//3
f 92//2 94//2 93//2
f 94//1 98//1 97//1
f 98//6 96//6 95//6
f 96//5 92//5 91//5
f 97//4 95//4 91//4
f 94//3 92//3 96//3
f 180//2 182//2 181//2
f 182//1 186//1 185//1
f 186//6 184//6 183//6
f 184//5 180//5 179//5
f 185//4 183//4 179//4
f 182//3 180//3 184//3
f 188//2 190//2 189//2
f 190//1 194//1 193//1
f 194//6 192//6 191//6
f 192//5 188//5 187//5
f 193//4 191//4 187//4
f 190//3 188//3 192//3
f 196//2 198//2 197//2
f 198//1 202//1 201//1
f 202//6 200//6 199//6
f 200//5 196//5 195//5
f 201//4 199//4 195//4
f 198//3 196//3 200//3
f 204//2 206//2 205//2
f 206//1 210//1 209//1
f 210//6 208//6 207//6
f 208//5 204//5 203//5
f 209//4 207//4 203//4
f 206//3 204//3 208//3
f 7//6 212//6 211//6
f 31//6 218//6 212//6
f 44//6 211//6 217//6
f 31//6 50//6 217//6
f 49//6 215//6 216//6
f 214//6 217//6 215//6
f 5//6 216//6 218//6
f 213//6 218//6 217//6
f 225//6 223//6 224//6
f 219//6 222//6 221//6
f 5//5 224//5 223//5
f 50//3 222//3 219//3
f 214//1 225//1 226//1
f 44//1 219//1 220//1
f 49//3 223//3 225//3
f 31//5 221//5 222//5
