# Blender v2.79 (sub 0) OBJ File: 'Blend.blend'
# www.blender.org
o Door_Piece_Cube
v 0.100000 0.000000 -3.000000
v 0.100000 0.000000 -1.000000
v -0.100000 0.000000 -1.000000
v -0.100000 0.000000 -3.000000
v 0.100000 3.000000 -3.000000
v 0.100000 3.000000 -0.999999
v -0.100000 3.000000 -1.000000
v -0.100000 3.000000 -3.000000
v 0.100000 0.147796 -3.000000
v 0.100000 0.147796 -1.000000
v -0.100000 0.147796 -1.000000
v -0.100000 0.147796 -3.000000
v 0.128588 0.000000 -3.000000
v 0.128588 0.000000 -1.000000
v -0.128588 0.000000 -1.000000
v -0.128588 0.000000 -3.000000
v 0.115496 0.147796 -3.000000
v 0.115496 0.147796 -1.000000
v -0.115496 0.147796 -1.000000
v -0.115496 0.147796 -3.000000
v 0.100000 2.000000 -3.000000
v 0.100000 2.000000 -0.999999
v -0.100000 2.000000 -1.000000
v -0.100000 2.000000 -3.000000
v 0.100000 0.000000 -1.400000
v 0.100000 0.000000 -2.600000
v -0.100000 0.000000 -2.600000
v -0.100000 0.000000 -1.400000
v 0.100000 3.000000 -2.599999
v 0.100000 3.000000 -1.399999
v -0.100000 3.000000 -1.400000
v -0.100000 3.000000 -2.600000
v -0.100000 0.147796 -2.600000
v -0.100000 0.147796 -1.400000
v 0.100000 0.147796 -1.400000
v 0.100000 0.147796 -2.600000
v 0.128588 0.000000 -2.600000
v 0.128588 0.000000 -1.400000
v -0.128588 0.000000 -1.400000
v -0.128588 0.000000 -2.600000
v -0.115496 0.147796 -1.400000
v -0.115496 0.147796 -2.600000
v 0.115496 0.147796 -2.600000
v 0.115496 0.147796 -1.400000
v -0.100000 2.000000 -1.400000
v -0.100000 2.000000 -2.600000
v 0.100000 2.000000 -2.599999
v 0.100000 2.000000 -1.399999
vn 0.0000 -1.0000 0.0000
vn -0.9961 0.0882 -0.0000
vn 0.9961 0.0882 0.0000
vn 0.0000 0.0000 -1.0000
vn 0.0000 0.0000 1.0000
vn 0.0000 1.0000 -0.0000
vn -1.0000 0.0000 -0.0000
vn 1.0000 -0.0000 0.0000
s off
f 1//1 37//1 26//1
f 19//2 39//2 15//2
f 17//3 37//3 13//3
f 4//4 20//4 12//4
f 2//5 18//5 10//5
f 27//1 16//1 4//1
f 3//5 19//5 15//5
f 1//4 17//4 13//4
f 11//6 41//6 19//6
f 36//6 17//6 9//6
f 44//3 14//3 38//3
f 3//1 39//1 28//1
f 42//2 16//2 40//2
f 10//6 44//6 35//6
f 33//6 20//6 42//6
f 25//1 14//1 2//1
f 25//4 44//4 38//4
f 28//4 41//4 34//4
f 26//5 43//5 36//5
f 27//5 42//5 40//5
f 1//1 13//1 37//1
f 19//2 41//2 39//2
f 17//3 43//3 37//3
f 4//4 16//4 20//4
f 2//5 14//5 18//5
f 27//1 40//1 16//1
f 3//5 11//5 19//5
f 1//4 9//4 17//4
f 11//6 34//6 41//6
f 36//6 43//6 17//6
f 44//3 18//3 14//3
f 3//1 15//1 39//1
f 42//2 20//2 16//2
f 10//6 18//6 44//6
f 33//6 12//6 20//6
f 25//1 38//1 14//1
f 25//4 35//4 44//4
f 28//4 39//4 41//4
f 26//5 37//5 43//5
f 27//5 33//5 42//5
f 32//7 24//7 46//7
f 8//6 29//6 5//6
f 6//5 23//5 22//5
f 7//7 45//7 23//7
f 1//4 12//4 9//4
f 9//4 24//4 21//4
f 23//7 34//7 11//7
f 10//5 3//5 2//5
f 21//8 36//8 9//8
f 30//8 22//8 48//8
f 21//4 8//4 5//4
f 22//5 11//5 10//5
f 48//8 10//8 35//8
f 1//1 27//1 4//1
f 46//7 12//7 33//7
f 31//6 6//6 30//6
f 5//8 47//8 21//8
f 25//1 3//1 28//1
f 46//7 31//7 32//7
f 48//8 29//8 30//8
f 30//6 32//6 31//6
f 34//4 25//4 28//4
f 48//4 34//4 45//4
f 48//1 46//1 47//1
f 47//5 33//5 36//5
f 26//5 33//5 27//5
f 32//7 8//7 24//7
f 8//6 32//6 29//6
f 6//5 7//5 23//5
f 7//7 31//7 45//7
f 1//4 4//4 12//4
f 9//4 12//4 24//4
f 23//7 45//7 34//7
f 10//5 11//5 3//5
f 21//8 47//8 36//8
f 30//8 6//8 22//8
f 21//4 24//4 8//4
f 22//5 23//5 11//5
f 48//8 22//8 10//8
f 1//1 26//1 27//1
f 46//7 24//7 12//7
f 31//6 7//6 6//6
f 5//8 29//8 47//8
f 25//1 2//1 3//1
f 46//7 45//7 31//7
f 48//8 47//8 29//8
f 30//6 29//6 32//6
f 34//4 35//4 25//4
f 48//4 35//4 34//4
f 48//1 45//1 46//1
f 47//5 46//5 33//5
f 26//5 36//5 33//5
