# Blender v2.79 (sub 0) OBJ File: 'Blend.blend'
# www.blender.org
o Table_Cube.007
v 0.441605 0.715635 1.472206
v 0.441605 0.795635 1.472206
v 0.441605 0.715635 -0.527794
v 0.441605 0.795635 -0.527794
v 1.941605 0.715635 1.472206
v 1.941605 0.795635 1.472206
v 1.941605 0.715635 -0.527794
v 1.941605 0.795635 -0.527794
v 1.941605 0.000000 1.472206
v 1.941605 0.000000 1.349352
v 1.941605 0.000000 -0.404941
v 1.941605 0.000000 -0.527794
v 0.441605 0.715635 1.349352
v 0.441605 0.715635 -0.404941
v 0.441605 0.795635 -0.404941
v 0.441605 0.795635 1.349352
v 1.941605 0.715635 -0.404941
v 1.941605 0.715635 1.349352
v 1.941605 0.795635 1.349352
v 1.941605 0.795635 -0.404941
v 0.441605 0.000000 -0.527794
v 0.441605 0.000000 -0.404941
v 0.441605 0.000000 1.472206
v 0.441605 0.000000 1.349352
v 0.575472 0.795635 1.472206
v 1.807739 0.795635 1.472206
v 1.807739 0.715635 1.472206
v 0.575472 0.715635 1.472206
v 0.575472 0.795635 -0.527794
v 1.807739 0.795635 -0.527794
v 0.575472 0.715635 -0.527794
v 1.807739 0.715635 -0.527794
v 0.575472 0.795635 1.349352
v 1.807739 0.795635 1.349352
v 1.807739 0.795635 -0.404941
v 0.575472 0.795635 -0.404941
v 0.575472 0.715635 1.349352
v 1.807739 0.715635 1.349352
v 1.807739 0.715635 -0.404941
v 0.575472 0.715635 -0.404941
v 1.807739 0.000000 1.349352
v 1.807739 0.000000 1.472206
v 0.575472 0.000000 1.472206
v 0.575472 0.000000 1.349352
v 1.807739 0.000000 -0.527794
v 1.807739 0.000000 -0.404941
v 0.575472 0.000000 -0.404941
v 0.575472 0.000000 -0.527794
v 1.941605 0.667305 -0.404941
v 1.941605 0.667305 1.349352
v 0.441605 0.667305 1.349352
v 0.441605 0.667305 -0.404941
v 0.575472 0.667305 1.349352
v 1.807739 0.667305 1.349352
v 1.807739 0.667305 1.472206
v 0.575472 0.667305 1.472206
v 0.575472 0.667305 -0.527794
v 1.807739 0.667305 -0.527794
v 1.807739 0.667305 -0.404941
v 0.575472 0.667305 -0.404941
v 0.431961 0.715635 1.485064
v 0.431961 0.795635 1.485064
v 0.431961 0.795635 -0.540653
v 0.431961 0.715635 -0.540653
v 1.951249 0.795635 -0.540653
v 1.951249 0.715635 -0.540653
v 1.951249 0.795635 1.485064
v 1.951249 0.715635 1.485064
v 0.431961 0.795635 -0.416220
v 0.431961 0.795635 1.360631
v 1.951249 0.795635 1.360631
v 1.951249 0.795635 -0.416220
v 1.951249 0.715635 -0.416220
v 1.951249 0.715635 1.360631
v 0.431961 0.715635 1.360631
v 0.431961 0.715635 -0.416220
v 1.815661 0.715635 1.485064
v 0.567549 0.715635 1.485064
v 0.567549 0.715635 -0.540653
v 1.815661 0.715635 -0.540653
v 0.567549 0.795635 1.485064
v 1.815661 0.795635 1.485064
v 0.567549 0.795635 -0.540653
v 1.815661 0.795635 -0.540653
vn 0.0000 -1.0000 0.0000
vn 0.0000 1.0000 0.0000
vn 0.0000 0.0000 -1.0000
vn -1.0000 0.0000 0.0000
vn 1.0000 0.0000 0.0000
vn 0.0000 0.0000 1.0000
s off
f 17//1 74//1 18//1
f 4//2 36//2 29//2
f 38//3 53//3 37//3
f 34//2 6//2 19//2
f 27//1 78//1 28//1
f 8//2 72//2 65//2
f 4//2 69//2 15//2
f 30//2 20//2 8//2
f 19//2 72//2 20//2
f 33//2 15//2 16//2
f 31//4 60//4 40//4
f 12//1 46//1 45//1
f 25//2 82//2 26//2
f 3//1 79//1 31//1
f 5//1 74//1 68//1
f 19//2 35//2 34//2
f 40//5 48//5 31//5
f 5//5 10//5 18//5
f 1//6 43//6 28//6
f 7//1 73//1 17//1
f 17//5 12//5 7//5
f 1//1 78//1 61//1
f 40//6 59//6 39//6
f 39//4 54//4 38//4
f 35//2 33//2 34//2
f 40//1 38//1 37//1
f 25//2 34//2 33//2
f 15//2 70//2 16//2
f 4//2 83//2 63//2
f 36//2 30//2 29//2
f 16//2 25//2 33//2
f 10//1 42//1 41//1
f 44//1 23//1 24//1
f 48//1 22//1 21//1
f 31//3 21//3 3//3
f 37//3 24//3 13//3
f 14//6 47//6 40//6
f 38//4 42//4 27//4
f 18//3 41//3 38//3
f 39//6 11//6 17//6
f 13//4 23//4 1//4
f 28//5 44//5 37//5
f 27//6 9//6 5//6
f 7//3 45//3 32//3
f 3//4 22//4 14//4
f 32//4 46//4 39//4
f 51//1 60//1 53//1
f 54//1 49//1 50//1
f 55//1 53//1 54//1
f 59//1 57//1 58//1
f 13//6 53//6 37//6
f 40//3 52//3 14//3
f 27//5 54//5 38//5
f 38//6 50//6 18//6
f 17//3 59//3 39//3
f 28//6 55//6 27//6
f 18//5 49//5 17//5
f 37//4 56//4 28//4
f 32//3 57//3 31//3
f 14//4 51//4 13//4
f 37//5 60//5 40//5
f 39//5 58//5 32//5
f 63//3 79//3 64//3
f 69//4 64//4 76//4
f 65//5 73//5 66//5
f 67//6 77//6 68//6
f 71//5 68//5 74//5
f 74//5 72//5 71//5
f 76//4 70//4 69//4
f 62//4 75//4 61//4
f 81//6 61//6 78//6
f 84//3 66//3 80//3
f 78//6 82//6 81//6
f 80//3 83//3 84//3
f 8//2 84//2 30//2
f 6//2 71//2 19//2
f 2//2 81//2 25//2
f 1//1 75//1 13//1
f 5//1 77//1 27//1
f 2//2 70//2 62//2
f 31//1 80//1 32//1
f 30//2 83//2 29//2
f 13//1 76//1 14//1
f 7//1 80//1 66//1
f 6//2 82//2 67//2
f 3//1 76//1 64//1
f 17//1 73//1 74//1
f 4//2 15//2 36//2
f 38//3 54//3 53//3
f 34//2 26//2 6//2
f 27//1 77//1 78//1
f 8//2 20//2 72//2
f 4//2 63//2 69//2
f 30//2 35//2 20//2
f 19//2 71//2 72//2
f 33//2 36//2 15//2
f 31//4 57//4 60//4
f 12//1 11//1 46//1
f 25//2 81//2 82//2
f 3//1 64//1 79//1
f 5//1 18//1 74//1
f 19//2 20//2 35//2
f 40//5 47//5 48//5
f 5//5 9//5 10//5
f 1//6 23//6 43//6
f 7//1 66//1 73//1
f 17//5 11//5 12//5
f 1//1 28//1 78//1
f 40//6 60//6 59//6
f 39//4 59//4 54//4
f 35//2 36//2 33//2
f 40//1 39//1 38//1
f 25//2 26//2 34//2
f 15//2 69//2 70//2
f 4//2 29//2 83//2
f 36//2 35//2 30//2
f 16//2 2//2 25//2
f 10//1 9//1 42//1
f 44//1 43//1 23//1
f 48//1 47//1 22//1
f 31//3 48//3 21//3
f 37//3 44//3 24//3
f 14//6 22//6 47//6
f 38//4 41//4 42//4
f 18//3 10//3 41//3
f 39//6 46//6 11//6
f 13//4 24//4 23//4
f 28//5 43//5 44//5
f 27//6 42//6 9//6
f 7//3 12//3 45//3
f 3//4 21//4 22//4
f 32//4 45//4 46//4
f 51//1 52//1 60//1
f 54//1 59//1 49//1
f 55//1 56//1 53//1
f 59//1 60//1 57//1
f 13//6 51//6 53//6
f 40//3 60//3 52//3
f 27//5 55//5 54//5
f 38//6 54//6 50//6
f 17//3 49//3 59//3
f 28//6 56//6 55//6
f 18//5 50//5 49//5
f 37//4 53//4 56//4
f 32//3 58//3 57//3
f 14//4 52//4 51//4
f 37//5 53//5 60//5
f 39//5 59//5 58//5
f 63//3 83//3 79//3
f 69//4 63//4 64//4
f 65//5 72//5 73//5
f 67//6 82//6 77//6
f 71//5 67//5 68//5
f 74//5 73//5 72//5
f 76//4 75//4 70//4
f 62//4 70//4 75//4
f 81//6 62//6 61//6
f 84//3 65//3 66//3
f 78//6 77//6 82//6
f 80//3 79//3 83//3
f 8//2 65//2 84//2
f 6//2 67//2 71//2
f 2//2 62//2 81//2
f 1//1 61//1 75//1
f 5//1 68//1 77//1
f 2//2 16//2 70//2
f 31//1 79//1 80//1
f 30//2 84//2 83//2
f 13//1 75//1 76//1
f 7//1 32//1 80//1
f 6//2 26//2 82//2
f 3//1 14//1 76//1
