# Blender v2.79 (sub 0) OBJ File: 'Blend.blend'
# www.blender.org
o Wall_Piece_Cube.001
v 0.100000 0.000000 -1.000000
v 0.100000 0.000000 1.000000
v -0.100000 0.000000 1.000000
v -0.100000 0.000000 -1.000000
v 0.100000 3.000000 -0.999999
v 0.100000 3.000000 1.000001
v -0.100000 3.000000 1.000000
v -0.100000 3.000000 -1.000000
v 0.100000 0.147796 -1.000000
v 0.100000 0.147796 1.000000
v -0.100000 0.147796 1.000000
v -0.100000 0.147796 -1.000000
v 0.128588 0.000000 -1.000000
v 0.128588 0.000000 1.000000
v -0.128588 0.000000 1.000000
v -0.128588 0.000000 -1.000000
v 0.115496 0.147796 -1.000000
v 0.115496 0.147796 1.000000
v -0.115496 0.147796 1.000000
v -0.115496 0.147796 -1.000000
vn 0.0000 1.0000 0.0000
vn -0.9961 0.0882 -0.0000
vn 0.9961 0.0882 0.0000
vn 0.0000 0.0000 -1.0000
vn 0.0000 0.0000 1.0000
vn 0.0000 -1.0000 0.0000
vn 1.0000 -0.0000 0.0000
vn -1.0000 -0.0000 -0.0000
s off
f 12//1 19//1 11//1
f 10//1 17//1 9//1
f 19//2 16//2 15//2
f 17//3 14//3 13//3
f 4//4 20//4 12//4
f 2//5 18//5 10//5
f 1//6 14//6 2//6
f 3//6 16//6 4//6
f 3//5 19//5 15//5
f 1//4 17//4 13//4
f 12//1 20//1 19//1
f 10//1 18//1 17//1
f 19//2 20//2 16//2
f 17//3 18//3 14//3
f 4//4 16//4 20//4
f 2//5 14//5 18//5
f 1//6 13//6 14//6
f 3//6 15//6 16//6
f 3//5 11//5 19//5
f 1//4 9//4 17//4
f 2//6 4//6 1//6
f 8//1 6//1 5//1
f 5//7 10//7 9//7
f 6//5 11//5 10//5
f 11//8 8//8 12//8
f 1//4 12//4 9//4
f 9//4 8//4 5//4
f 10//5 3//5 2//5
f 2//6 3//6 4//6
f 8//1 7//1 6//1
f 5//7 6//7 10//7
f 6//5 7//5 11//5
f 11//8 7//8 8//8
f 1//4 4//4 12//4
f 9//4 12//4 8//4
f 10//5 11//5 3//5
