# Blender v2.79 (sub 0) OBJ File: 'Blend.blend'
# www.blender.org
o WindowPiece_Cube.005
v -0.111971 2.000000 2.666745
v -0.111971 2.000000 1.333254
v 0.111971 2.000000 1.333255
v 0.111971 2.000000 2.666746
v 0.111971 1.000000 1.333255
v 0.111971 1.000000 2.666746
v -0.111971 1.000000 2.666745
v -0.111971 1.000000 1.333254
v 0.111971 1.036653 1.382132
v -0.111971 1.036653 1.382131
v 0.111971 1.963347 2.617869
v -0.111971 1.963347 2.617868
v 0.111971 1.963347 1.382132
v -0.111971 1.963347 1.382131
v 0.111971 1.036653 2.617869
v -0.111971 1.036653 2.617868
v 0.100000 0.000000 1.000000
v 0.100000 0.000000 3.000000
v -0.100000 0.000000 3.000000
v -0.100000 0.000000 1.000000
v 0.100000 3.000000 1.000000
v 0.100000 3.000000 3.000000
v -0.100000 3.000000 3.000000
v -0.100000 3.000000 1.000000
v 0.100000 0.147796 1.000000
v 0.100000 0.147796 3.000000
v -0.100000 0.147796 3.000000
v -0.100000 0.147796 1.000000
v 0.128588 0.000000 1.000000
v 0.128588 0.000000 3.000000
v -0.128588 0.000000 3.000000
v -0.128588 0.000000 1.000000
v 0.115496 0.147796 1.000000
v 0.115496 0.147796 3.000000
v -0.115496 0.147796 3.000000
v -0.115496 0.147796 1.000000
v 0.100000 2.000000 1.000000
v 0.100000 2.000000 3.000000
v -0.100000 2.000000 3.000000
v -0.100000 2.000000 1.000000
v 0.100000 1.000000 1.000000
v 0.100000 1.000000 3.000000
v -0.100000 1.000000 3.000000
v -0.100000 1.000000 1.000000
v 0.100000 0.000000 2.666745
v 0.100000 0.000000 1.333255
v -0.100000 0.000000 1.333254
v -0.100000 0.000000 2.666745
v 0.100000 3.000000 1.333255
v 0.100000 3.000000 2.666746
v -0.100000 3.000000 2.666745
v -0.100000 3.000000 1.333254
v -0.100000 0.147796 1.333254
v -0.100000 0.147796 2.666745
v 0.100000 0.147796 2.666745
v 0.100000 0.147796 1.333255
v 0.128588 0.000000 1.333255
v 0.128588 0.000000 2.666745
v -0.128588 0.000000 2.666745
v -0.128588 0.000000 1.333254
v -0.115496 0.147796 2.666745
v -0.115496 0.147796 1.333254
v 0.115496 0.147796 1.333255
v 0.115496 0.147796 2.666745
v -0.100000 2.000000 2.666745
v -0.100000 2.000000 1.333254
v 0.100000 2.000000 1.333255
v 0.100000 2.000000 2.666746
v 0.100000 1.000000 1.333255
v 0.100000 1.000000 2.666746
v -0.100000 1.000000 2.666745
v -0.100000 1.000000 1.333254
vn 0.0000 0.0000 -1.0000
vn 0.0000 1.0000 0.0000
vn -0.0000 0.0000 1.0000
vn 0.0000 -1.0000 0.0000
vn -1.0000 0.0000 0.0000
vn 1.0000 0.0000 0.0000
vn -0.9961 0.0882 -0.0000
vn 0.9961 0.0882 0.0000
s off
f 2//1 5//1 8//1
f 1//2 3//2 2//2
f 7//3 4//3 1//3
f 5//4 7//4 8//4
f 9//3 14//3 10//3
f 14//4 11//4 12//4
f 11//1 16//1 12//1
f 16//2 9//2 10//2
f 8//5 14//5 2//5
f 3//6 9//6 5//6
f 3//6 11//6 13//6
f 7//5 10//5 8//5
f 1//5 16//5 7//5
f 1//5 14//5 12//5
f 6//6 11//6 4//6
f 5//6 15//6 6//6
f 2//1 3//1 5//1
f 1//2 4//2 3//2
f 7//3 6//3 4//3
f 5//4 6//4 7//4
f 9//3 13//3 14//3
f 14//4 13//4 11//4
f 11//1 15//1 16//1
f 16//2 15//2 9//2
f 8//5 10//5 14//5
f 3//6 13//6 9//6
f 3//6 4//6 11//6
f 7//5 16//5 10//5
f 1//5 12//5 16//5
f 1//5 2//5 14//5
f 6//6 15//6 11//6
f 5//6 9//6 15//6
f 17//4 57//4 46//4
f 35//7 59//7 31//7
f 33//8 57//8 29//8
f 20//1 36//1 28//1
f 18//3 34//3 26//3
f 47//4 32//4 20//4
f 19//3 35//3 31//3
f 17//1 33//1 29//1
f 56//2 33//2 25//2
f 27//2 61//2 35//2
f 64//8 30//8 58//8
f 19//4 59//4 48//4
f 62//7 32//7 60//7
f 26//2 64//2 55//2
f 28//2 62//2 53//2
f 48//4 60//4 47//4
f 57//4 45//4 46//4
f 58//8 63//8 64//8
f 60//7 61//7 62//7
f 64//2 56//2 55//2
f 62//2 54//2 53//2
f 45//4 30//4 18//4
f 17//4 29//4 57//4
f 35//7 61//7 59//7
f 33//8 63//8 57//8
f 20//1 32//1 36//1
f 18//3 30//3 34//3
f 47//4 60//4 32//4
f 19//3 27//3 35//3
f 17//1 25//1 33//1
f 56//2 63//2 33//2
f 27//2 54//2 61//2
f 64//8 34//8 30//8
f 19//4 31//4 59//4
f 62//7 36//7 32//7
f 26//2 34//2 64//2
f 28//2 36//2 62//2
f 48//4 59//4 60//4
f 57//4 58//4 45//4
f 58//8 57//8 63//8
f 60//7 59//7 61//7
f 64//2 63//2 56//2
f 62//2 61//2 54//2
f 45//4 58//4 30//4
f 52//5 40//5 66//5
f 24//2 49//2 21//2
f 22//3 39//3 38//3
f 23//5 65//5 39//5
f 17//1 28//1 25//1
f 25//1 44//1 41//1
f 43//5 54//5 27//5
f 26//3 19//3 18//3
f 41//6 56//6 25//6
f 50//6 38//6 68//6
f 37//1 24//1 21//1
f 39//5 71//5 43//5
f 38//3 43//3 42//3
f 37//6 69//6 41//6
f 42//3 27//3 26//3
f 41//1 40//1 37//1
f 70//6 26//6 55//6
f 69//3 66//3 72//3
f 68//6 42//6 70//6
f 46//4 20//4 17//4
f 66//5 44//5 72//5
f 72//5 28//5 53//5
f 51//2 22//2 50//2
f 21//6 67//6 37//6
f 18//4 48//4 45//4
f 72//5 54//5 71//5
f 55//6 69//6 70//6
f 65//4 67//4 68//4
f 68//1 71//1 65//1
f 66//5 51//5 52//5
f 68//6 49//6 50//6
f 51//2 49//2 52//2
f 48//4 46//4 45//4
f 71//2 69//2 72//2
f 52//5 24//5 40//5
f 24//2 52//2 49//2
f 22//3 23//3 39//3
f 23//5 51//5 65//5
f 17//1 20//1 28//1
f 25//1 28//1 44//1
f 43//5 71//5 54//5
f 26//3 27//3 19//3
f 41//6 69//6 56//6
f 50//6 22//6 38//6
f 37//1 40//1 24//1
f 39//5 65//5 71//5
f 38//3 39//3 43//3
f 37//6 67//6 69//6
f 42//3 43//3 27//3
f 41//1 44//1 40//1
f 70//6 42//6 26//6
f 69//3 67//3 66//3
f 68//6 38//6 42//6
f 46//4 47//4 20//4
f 66//5 40//5 44//5
f 72//5 44//5 28//5
f 51//2 23//2 22//2
f 21//6 49//6 67//6
f 18//4 19//4 48//4
f 72//5 53//5 54//5
f 55//6 56//6 69//6
f 65//4 66//4 67//4
f 68//1 70//1 71//1
f 66//5 65//5 51//5
f 68//6 67//6 49//6
f 51//2 50//2 49//2
f 48//4 47//4 46//4
f 71//2 70//2 69//2
